<?xml version="1.0" encoding="UTF-8"?>
<svg version="1.1" xmlns="http://www.w3.org/2000/svg" width="400" height="400">
<path d="M0 0 C6.76549407 2.11049375 10.08376986 11.16657287 13.27587891 17.16992188 C18.25929105 26.83091254 22.31500977 36.71226173 25.72314453 47.03173828 C27.04517358 51.03272499 28.47096168 54.87910441 30.23046875 58.7109375 C31.70981641 61.95127854 32.72749301 64.93032752 33.29296875 68.46875 C33.59795427 71.51407972 33.59795427 71.51407972 35.10546875 73.96875 C36.23984375 73.948125 37.37421875 73.9275 38.54296875 73.90625 C42.10546875 73.96875 42.10546875 73.96875 44.10546875 75.96875 C43.93983443 79.19861927 43.55269632 80.55037582 41.16796875 82.78125 C39.10546875 83.96875 39.10546875 83.96875 37.10546875 83.96875 C37.25886719 85.0103125 37.41226562 86.051875 37.5703125 87.125 C38.33178137 93.21675093 38.46248686 99.33797886 38.66796875 105.46875 C38.71115234 106.67273438 38.75433594 107.87671875 38.79882812 109.1171875 C38.90420043 112.06761193 39.00632778 115.01811071 39.10546875 117.96875 C40.75546875 117.96875 42.40546875 117.96875 44.10546875 117.96875 C44.10546875 118.62875 44.10546875 119.28875 44.10546875 119.96875 C44.73195313 119.94554688 45.3584375 119.92234375 46.00390625 119.8984375 C46.82117188 119.88039063 47.6384375 119.86234375 48.48046875 119.84375 C49.29257812 119.82054688 50.1046875 119.79734375 50.94140625 119.7734375 C53.10546875 119.96875 53.10546875 119.96875 55.10546875 121.96875 C55.10546875 123.28875 55.10546875 124.60875 55.10546875 125.96875 C54.44546875 125.96875 53.78546875 125.96875 53.10546875 125.96875 C53.10546875 126.62875 53.10546875 127.28875 53.10546875 127.96875 C51.14721002 127.99569851 49.18884649 128.01512218 47.23046875 128.03125 C45.59464844 128.04865234 45.59464844 128.04865234 43.92578125 128.06640625 C41.10546875 127.96875 41.10546875 127.96875 39.10546875 126.96875 C39.14027344 127.79375 39.17507813 128.61875 39.2109375 129.46875 C39.51772286 142.55825849 37.76305998 155.02175533 32.10546875 166.96875 C32.75 167.24460938 33.39453125 167.52046875 34.05859375 167.8046875 C36.10546875 168.96875 36.10546875 168.96875 36.85546875 171.59375 C36.93796875 172.3775 37.02046875 173.16125 37.10546875 173.96875 C34.3462269 175.77286967 33.21574772 175.9814745 29.85546875 175.59375 C28.94796875 175.3875 28.04046875 175.18125 27.10546875 174.96875 C26.85023438 175.70996094 26.595 176.45117188 26.33203125 177.21484375 C25.04911932 180.09526703 23.62133957 181.74501141 21.48046875 184.03125 C17.61175453 188.79579354 17.77961003 192.09829632 18.1953125 198.0390625 C18.06842592 202.17666822 16.32121074 204.60211036 14.171875 208.03125 C12.89021201 210.02067818 12.89021201 210.02067818 12.98046875 212.84375 C13.99137978 215.65183619 15.17579904 218.20355737 16.47265625 220.88671875 C19.22619299 226.91808628 20.87780941 232.95936528 22.35546875 239.40625 C22.73832031 240.96956055 22.73832031 240.96956055 23.12890625 242.56445312 C26.78187501 258.07034421 26.6238597 274.11449074 27.10546875 289.96875 C27.1302832 290.74782715 27.15509766 291.5269043 27.18066406 292.32958984 C28.00013172 321.14290602 21.17617823 346.90550244 1.10546875 368.46875 C-1.97426457 371.41717686 -4.58010034 372.96914811 -8.6328125 374.1953125 C-11.52478792 375.18427819 -14.12082066 376.55988264 -16.83203125 377.96875 C-24.97549239 382.0761528 -31.50077908 384.0396255 -40.59765625 384.59375 C-45.45286342 385.14600105 -49.99986709 386.52243198 -54.66796875 387.93359375 C-66.58328021 391.09011661 -78.7725425 391.36530541 -91.01611328 391.60180664 C-93.75853279 391.65603253 -96.50019248 391.72648968 -99.2421875 391.79882812 C-127.87788936 392.47707095 -127.87788936 392.47707095 -132.89453125 389.96875 C-134.23509602 389.79744268 -135.58179908 389.6724883 -136.9296875 389.57421875 C-153.39329534 388.21473259 -153.39329534 388.21473259 -160.89453125 383.96875 C-160.89453125 383.30875 -160.89453125 382.64875 -160.89453125 381.96875 C-161.53390625 381.700625 -162.17328125 381.4325 -162.83203125 381.15625 C-164.89453125 379.96875 -164.89453125 379.96875 -165.89453125 376.96875 C-166.55453125 376.96875 -167.21453125 376.96875 -167.89453125 376.96875 C-172.5443776 370.50935754 -175.69904763 363.54611983 -177.97265625 355.953125 C-178.66394903 353.71521109 -179.45551376 351.50786824 -180.29516602 349.32128906 C-185.47651378 335.55127182 -187.85457376 321.34048185 -189.40795898 306.76806641 C-189.70999135 303.94104343 -190.03403631 301.11716862 -190.36132812 298.29296875 C-192.0523801 283.39033314 -191.81136791 269.3868546 -190.45703125 254.46875 C-190.32052753 252.92581976 -190.18445739 251.3828511 -190.04882812 249.83984375 C-189.67030718 245.54890693 -189.28383509 241.25872039 -188.89453125 236.96875 C-188.73573486 235.21498047 -188.73573486 235.21498047 -188.57373047 233.42578125 C-188.34815077 230.94002821 -188.12188022 228.45434174 -187.89453125 225.96875 C-188.55453125 225.96875 -189.21453125 225.96875 -189.89453125 225.96875 C-190.09755859 225.02515625 -190.09755859 225.02515625 -190.3046875 224.0625 C-191.85670831 217.89159091 -193.99083376 214.08677148 -198.46875 209.5625 C-199.89453125 207.96875 -199.89453125 207.96875 -199.89453125 205.96875 C-200.55453125 205.96875 -201.21453125 205.96875 -201.89453125 205.96875 C-202.87937233 204.22193707 -203.85719312 202.4711649 -204.83203125 200.71875 C-205.37730469 199.74421875 -205.92257813 198.7696875 -206.484375 197.765625 C-207.6606396 195.43264591 -208.41554816 193.51524238 -208.89453125 190.96875 C-210.31765625 191.773125 -210.31765625 191.773125 -211.76953125 192.59375 C-212.40375 192.95210937 -213.03796875 193.31046875 -213.69140625 193.6796875 C-215.28348649 194.61122381 -216.85415324 195.57968946 -218.41015625 196.5703125 C-219.27125 197.11429688 -220.13234375 197.65828125 -221.01953125 198.21875 C-222.22996094 198.99992187 -222.22996094 198.99992187 -223.46484375 199.796875 C-226.1651515 201.09927424 -227.93509187 201.20044988 -230.89453125 200.96875 C-230.89453125 197.96875 -230.89453125 197.96875 -229.28515625 196.25 C-228.57875 195.6621875 -227.87234375 195.074375 -227.14453125 194.46875 C-226.4484375 193.8809375 -225.75234375 193.293125 -225.03515625 192.6875 C-219.15816761 187.96875 -219.15816761 187.96875 -216.89453125 187.96875 C-216.89453125 187.30875 -216.89453125 186.64875 -216.89453125 185.96875 C-215.60219518 184.59564293 -214.27015979 183.25840176 -212.89453125 181.96875 C-213.29285156 180.9271875 -213.69117188 179.885625 -214.1015625 178.8125 C-217.77664091 168.9555553 -220.29975531 159.36277211 -221.89453125 148.96875 C-225.19453125 148.96875 -228.49453125 148.96875 -231.89453125 148.96875 C-231.89453125 147.64875 -231.89453125 146.32875 -231.89453125 144.96875 C-228.4796388 142.23683604 -226.16376336 141.8252464 -221.89453125 141.96875 C-221.90613281 141.0715625 -221.91773438 140.174375 -221.9296875 139.25 C-221.99825366 129.76827965 -221.56427032 120.42881432 -220.89453125 110.96875 C-225.84453125 110.96875 -230.79453125 110.96875 -235.89453125 110.96875 C-236.22453125 110.30875 -236.55453125 109.64875 -236.89453125 108.96875 C-235.89453125 105.96875 -235.89453125 105.96875 -233.7265625 104.7890625 C-230.53943613 103.86589486 -227.89404241 103.77095855 -224.58203125 103.84375 C-223.51339844 103.86179687 -222.44476563 103.87984375 -221.34375 103.8984375 C-220.53550781 103.92164062 -219.72726563 103.94484375 -218.89453125 103.96875 C-218.93707031 103.12441406 -218.97960937 102.28007813 -219.0234375 101.41015625 C-218.65082174 91.46244455 -213.53323879 81.79362324 -208.7265625 73.30078125 C-206.7198484 69.65104324 -204.94422766 65.93930079 -203.20703125 62.15625 C-202.91143311 61.51389404 -202.61583496 60.87153809 -202.3112793 60.2097168 C-202.02679932 59.59136963 -201.74231934 58.97302246 -201.44921875 58.3359375 C-199.67890717 54.50174508 -197.80904778 50.73201722 -195.89453125 46.96875 C-194.91426947 45.01096461 -193.93520472 43.05257962 -192.95703125 41.09375 C-188.92578125 33.03125 -188.92578125 33.03125 -184.89453125 24.96875 C-184.23453125 24.96875 -183.57453125 24.96875 -182.89453125 24.96875 C-182.80945313 24.26234375 -182.724375 23.5559375 -182.63671875 22.828125 C-181.72625491 19.32044327 -180.16657129 17.12865775 -178.01953125 14.21875 C-177.32085937 13.25453125 -176.6221875 12.2903125 -175.90234375 11.296875 C-173.89453125 8.96875 -173.89453125 8.96875 -170.89453125 7.96875 C-170.89453125 7.30875 -170.89453125 6.64875 -170.89453125 5.96875 C-164.55824806 4.6283824 -164.55824806 4.6283824 -161.45703125 6.21875 C-159.89453125 7.96875 -159.89453125 7.96875 -159.89453125 10.96875 C-159.23453125 10.96875 -158.57453125 10.96875 -157.89453125 10.96875 C-157.89453125 12.28875 -157.89453125 13.60875 -157.89453125 14.96875 C-157.23453125 14.96875 -156.57453125 14.96875 -155.89453125 14.96875 C-155.64058594 15.7421875 -155.38664062 16.515625 -155.125 17.3125 C-152.86239647 24.20114646 -152.86239647 24.20114646 -150.26953125 30.96875 C-148.62319608 35.23669499 -147.99783976 39.62818514 -147.32421875 44.13671875 C-146.92493737 46.76834603 -146.43749887 49.36345801 -145.89453125 51.96875 C-144.99992187 51.49824219 -144.1053125 51.02773438 -143.18359375 50.54296875 C-141.96246791 49.91361928 -140.74110044 49.2847385 -139.51953125 48.65625 C-138.93558594 48.34751953 -138.35164063 48.03878906 -137.75 47.72070312 C-128.79685374 43.1478596 -119.13243143 41.26006241 -109.33203125 39.34375 C-108.26017578 39.1271875 -107.18832031 38.910625 -106.08398438 38.6875 C-96.13811832 36.71657609 -86.65742379 35.78797274 -76.51953125 35.78125 C-75.5553125 35.76900391 -74.59109375 35.75675781 -73.59765625 35.74414062 C-64.40678251 35.72566032 -56.0754376 36.59291637 -47.89453125 40.96875 C-44.65783495 41.67633326 -44.65783495 41.67633326 -41.89453125 41.96875 C-41.44078125 41.14375 -40.98703125 40.31875 -40.51953125 39.46875 C-39.98328125 38.64375 -39.44703125 37.81875 -38.89453125 36.96875 C-38.23453125 36.96875 -37.57453125 36.96875 -36.89453125 36.96875 C-36.89453125 36.30875 -36.89453125 35.64875 -36.89453125 34.96875 C-36.23453125 34.96875 -35.57453125 34.96875 -34.89453125 34.96875 C-34.62640625 34.329375 -34.35828125 33.69 -34.08203125 33.03125 C-32.89453125 30.96875 -32.89453125 30.96875 -29.89453125 29.96875 C-29.16129329 27.95366642 -29.16129329 27.95366642 -28.89453125 25.96875 C-28.23453125 25.96875 -27.57453125 25.96875 -26.89453125 25.96875 C-26.66765625 25.4325 -26.44078125 24.89625 -26.20703125 24.34375 C-23.07337544 18.6733252 -18.61643445 14.77351414 -13.74609375 10.6328125 C-11.50317649 8.6170261 -9.75165856 6.33818829 -7.89453125 3.96875 C-3.88385034 -0.04193091 -3.88385034 -0.04193091 0 0 Z " fill="#090707" transform="translate(286.89453125,1.03125)"/>
<path d="M0 0 C2.6359333 0.3499526 3.73258983 0.67738719 5.45703125 2.7578125 C12.22444806 14.57641362 17.39460809 26.45994303 21.51538086 39.4152832 C23.17570528 44.63280134 25.04627458 49.69635334 27.11450195 54.76586914 C28.16275661 57.41063846 29.00889719 60.06630237 29.75 62.8125 C29.99234375 63.68519531 30.2346875 64.55789062 30.484375 65.45703125 C31.00937856 68.04625334 31.03625113 70.3665749 31 73 C30.32420898 73.37809814 29.64841797 73.75619629 28.95214844 74.14575195 C25.88309728 75.86504264 22.81653208 77.58872062 19.75 79.3125 C18.68652344 79.90740234 17.62304688 80.50230469 16.52734375 81.11523438 C15.50253906 81.69208984 14.47773438 82.26894531 13.421875 82.86328125 C12.47924805 83.39219971 11.53662109 83.92111816 10.56542969 84.46606445 C8.23129492 85.86170289 6.06206338 87.22615271 4 89 C4 89.66 4 90.32 4 91 C5.05058594 90.39671875 6.10117187 89.7934375 7.18359375 89.171875 C26.7536047 78 26.7536047 78 33 78 C33.90816798 81.86207074 34.11643845 85.43148656 34.09765625 89.39453125 C34.09515869 90.47839111 34.09266113 91.56225098 34.09008789 92.67895508 C34.08098389 94.0430249 34.07187988 95.40709473 34.0625 96.8125 C34.041875 101.164375 34.02125 105.51625 34 110 C23.44 110 12.88 110 2 110 C11.03434044 111.27369326 11.03434044 111.27369326 20.06933594 112.54272461 C21.19629883 112.70264893 22.32326172 112.86257324 23.484375 113.02734375 C25.21252441 113.27085571 25.21252441 113.27085571 26.97558594 113.51928711 C29.3732928 113.90038856 31.66283958 114.35552551 34 115 C34.72251922 144.15272416 34.72251922 144.15272416 27 158 C25.33388095 158.042721 23.66617115 158.04063832 22 158 C21.67 157.67 21.34 157.34 21 157 C18.41852762 156.43125095 15.84836144 155.91554361 13.25 155.4375 C12.53328125 155.29892578 11.8165625 155.16035156 11.078125 155.01757812 C7.33381676 154.31896179 3.82807128 153.82668181 0 154 C1.22976563 154.33773437 2.45953125 154.67546875 3.7265625 155.0234375 C5.35939802 155.47387489 6.99220924 155.92440038 8.625 156.375 C9.43324219 156.59671875 10.24148438 156.8184375 11.07421875 157.046875 C15.42749072 158.25021847 19.72989508 159.52135525 24 161 C22.55172536 172.20401356 10.33640236 183.61663968 1.9375 190.5625 C-10.83688604 199.9509042 -25.40063699 206.0702511 -40 212 C-40.81218994 212.34369629 -41.62437988 212.68739258 -42.46118164 213.04150391 C-45.0183993 214.0069464 -47.46548924 214.63109855 -50.140625 215.18359375 C-51.130625 215.38919922 -52.120625 215.59480469 -53.140625 215.80664062 C-54.67976563 216.11891602 -54.67976563 216.11891602 -56.25 216.4375 C-57.2296875 216.64181641 -58.209375 216.84613281 -59.21875 217.05664062 C-61.3162506 217.48824171 -63.41612598 217.90840826 -65.51782227 218.3190918 C-67.94152089 218.79302403 -70.36110234 219.28830278 -72.77709961 219.80004883 C-83.85130201 222.05203707 -94.77418963 222.58761026 -106.05688477 222.76342773 C-109.06272202 222.81250362 -112.06706925 222.88826003 -115.07226562 222.96679688 C-126.25724196 223.21285359 -136.9537083 222.85232173 -148 221 C-148.87358154 220.85876709 -149.74716309 220.71753418 -150.6472168 220.57202148 C-160.38215358 218.85558451 -168.02543659 216.04374043 -176 210 C-176.72574219 209.50371094 -177.45148438 209.00742188 -178.19921875 208.49609375 C-183.26277487 204.9564269 -187.13826653 200.79763593 -191 196 C-191.53753906 195.360625 -192.07507813 194.72125 -192.62890625 194.0625 C-197.36572645 188.17412201 -201 181.68032961 -201 174 C-199.54711914 172.67553711 -199.54711914 172.67553711 -197.53515625 171.52734375 C-196.81779297 171.10259766 -196.10042969 170.67785156 -195.36132812 170.24023438 C-194.60271484 169.81033203 -193.84410156 169.38042969 -193.0625 168.9375 C-191.56964562 168.07952306 -190.08112022 167.2139566 -188.59765625 166.33984375 C-187.60004272 165.77317993 -187.60004272 165.77317993 -186.58227539 165.19506836 C-184.68393877 163.99587128 -184.68393877 163.99587128 -184 161 C-188.46216114 163.37779562 -192.78187239 165.74571812 -196.8125 168.8125 C-200 171 -200 171 -204 171 C-213.35493182 145.26469349 -213.35493182 145.26469349 -211 135 C-210.33581055 134.86424561 -209.67162109 134.72849121 -208.98730469 134.58862305 C-191.78616989 131.58364491 -191.78616989 131.58364491 -175 127 C-174.67 126.34 -174.34 125.68 -174 125 C-184.13702118 126.45444217 -194.1130607 128.06055573 -204.00976562 130.72949219 C-206.78248359 131.47420649 -209.11037907 132 -212 132 C-212.0294191 128.52085157 -212.04693792 125.04173583 -212.0625 121.5625 C-212.07087891 120.58861328 -212.07925781 119.61472656 -212.08789062 118.61132812 C-212.09111328 117.64775391 -212.09433594 116.68417969 -212.09765625 115.69140625 C-212.10289307 114.81685791 -212.10812988 113.94230957 -212.11352539 113.04125977 C-211.96316381 109.01318609 -211.44513613 105.00622516 -211 101 C-201.43 101 -191.86 101 -182 101 C-182.495 100.01 -182.495 100.01 -183 99 C-186.34675776 98.09770392 -189.62887947 97.83188861 -193.08203125 97.68359375 C-194.01337891 97.64169922 -194.94472656 97.59980469 -195.90429688 97.55664062 C-196.86400391 97.51732422 -197.82371094 97.47800781 -198.8125 97.4375 C-199.79154297 97.39431641 -200.77058594 97.35113281 -201.77929688 97.30664062 C-204.18607027 97.2009774 -206.59293983 97.09887673 -209 97 C-209.49718393 82.72149908 -202.00344696 70.11490654 -194.89453125 58.13745117 C-192.72363817 54.4579631 -191.5919669 51.30092779 -190.671875 47.13671875 C-189.60352957 43.73913184 -187.66582138 40.9592289 -185.76953125 37.96484375 C-183.65502593 34.42199709 -181.86447249 30.77108966 -180.0625 27.0625 C-175.83825757 18.44330808 -171.0877442 10.45086953 -165 3 C-162 4 -162 4 -160.75390625 5.828125 C-156.74452078 13.9783512 -154.07910223 22.34253242 -152.00390625 31.17578125 C-151.83576416 31.88395996 -151.66762207 32.59213867 -151.49438477 33.32177734 C-151.1739726 34.69298318 -150.86511548 36.0669611 -150.57006836 37.44384766 C-149.48941258 42.12333023 -147.81402379 45.20693043 -145 49 C-138.85034228 48.7204701 -134.49322379 46.3609436 -129.16015625 43.375 C-125.3256987 41.70660809 -122.1535217 41.35844847 -118 41 C-118.01047363 41.57443848 -118.02094727 42.14887695 -118.03173828 42.74072266 C-118.07357099 45.36876977 -118.099412 47.99674654 -118.125 50.625 C-118.15013672 51.98044922 -118.15013672 51.98044922 -118.17578125 53.36328125 C-118.21201643 58.32750152 -117.96444146 62.34411907 -116 67 C-113.69 67 -111.38 67 -109 67 C-108.56880859 65.91332031 -108.56880859 65.91332031 -108.12890625 64.8046875 C-107.42392664 63.05321568 -106.70486539 61.30726896 -105.96484375 59.5703125 C-103.89222656 54.63701075 -102.56514458 50.31235903 -102 45 C-101.67 44.67 -101.34 44.34 -101 44 C-100.76924918 42.65252916 -100.58846937 41.29622435 -100.4375 39.9375 C-100.2209375 37.9884375 -100.2209375 37.9884375 -100 36 C-97.36 36 -94.72 36 -92 36 C-91.98541748 36.56283691 -91.97083496 37.12567383 -91.95581055 37.70556641 C-92.20614691 59.87502828 -92.20614691 59.87502828 -83 79 C-79.19758884 78.70750683 -77.47500958 77.82140202 -75 75 C-70.89213662 67.19408384 -71.43962534 58.60611136 -71.3125 50 C-71.2792797 48.44658657 -71.24478578 46.89319983 -71.20898438 45.33984375 C-71.12461752 41.56004407 -71.05755671 37.7802991 -71 34 C-69.02 34 -67.04 34 -65 34 C-64.98018066 34.57443848 -64.96036133 35.14887695 -64.93994141 35.74072266 C-64.84407976 38.36923833 -64.73465126 40.99702491 -64.625 43.625 C-64.57859375 44.98044922 -64.57859375 44.98044922 -64.53125 46.36328125 C-64.23415643 53.38604895 -64.23415643 53.38604895 -62 60 C-59.48667331 61.70329204 -57.01841777 62.09867904 -54 62 C-49.2462051 58.8308034 -47.32602456 54.38755431 -46 49 C-45.51101066 45.67202402 -45.19950007 42.35710464 -45 39 C-43.865625 39.37125 -42.73125 39.7425 -41.5625 40.125 C-39.33350618 40.5455721 -39.33350618 40.5455721 -37 40 C-32.7660618 36.48079414 -29.51450475 32.15789818 -26.36328125 27.66796875 C-25.91339844 27.11753906 -25.46351563 26.56710938 -25 26 C-24.34 26 -23.68 26 -23 26 C-22.77570313 25.45988281 -22.55140625 24.91976562 -22.3203125 24.36328125 C-20.58228156 21.25230871 -18.28911098 18.77804406 -15.875 16.1875 C-15.38652588 15.65777588 -14.89805176 15.12805176 -14.39477539 14.58227539 C-10.98542577 10.93199021 -7.43027874 7.56569552 -3.55859375 4.40234375 C-1.747112 2.88881188 -1.747112 2.88881188 0 0 Z " fill="#FBFBFB" transform="translate(284,10)"/>
<path d="M0 0 C1.84082031 0.22998047 1.84082031 0.22998047 4 1 C8.64220124 7.32801844 10.46181865 15.3665611 12.25 22.875 C12.50523437 23.87402344 12.76046875 24.87304688 13.0234375 25.90234375 C15.71770168 36.89210553 16.15587384 47.84488524 16.16796875 59.125 C16.17129715 60.23375488 16.17462555 61.34250977 16.17805481 62.48486328 C16.1830794 64.81086822 16.18546453 67.13688026 16.18530273 69.46289062 C16.18749441 72.99100726 16.20571255 76.51881324 16.22460938 80.046875 C16.22754335 82.32291561 16.22952812 84.59895769 16.23046875 86.875 C16.23765427 87.91285645 16.24483978 88.95071289 16.25224304 90.02001953 C16.20401913 105.71686222 12.38073472 119.75414965 4.4375 133.25 C4.06165771 133.89428955 3.68581543 134.5385791 3.29858398 135.20239258 C1.23360333 138.5605295 -0.31898259 140.53577308 -4 142 C-4.59070014 143.94603274 -4.59070014 143.94603274 -5 146 C-7.52274168 149.85831081 -11.76580895 150.09763141 -16 151 C-16.556875 150.21625 -17.11375 149.4325 -17.6875 148.625 C-23.00841814 142.58503887 -30.13196852 143.21046638 -38 142 C-38 128.14 -38 114.28 -38 100 C-32.06 99.505 -32.06 99.505 -26 99 C-18.59703785 94.55822271 -17.31714815 89.68165645 -15.25 81.5 C-14.82393522 79.66882796 -14.40395856 77.83617529 -14 76 C-14.99 76.33 -15.98 76.66 -17 77 C-17.96651417 79.46932585 -18.76878396 81.83697271 -19.5 84.375 C-22.00008622 92.9559411 -22.00008622 92.9559411 -25 95 C-30.25634573 96.89053599 -36.57373275 96.56784978 -41.9375 95.3125 C-46.94391665 92.1265985 -47.83596816 86.52477697 -49.25390625 81.109375 C-49.79073571 78.81542103 -49.79073571 78.81542103 -52 78 C-51.67 81.3 -51.34 84.6 -51 88 C-71.46 88 -91.92 88 -113 88 C-113 86.35 -113 84.7 -113 83 C-113.99 83 -114.98 83 -116 83 C-116.495 84.98 -116.495 84.98 -117 87 C-117.66 87 -118.32 87 -119 87 C-119.0928125 88.2684375 -119.0928125 88.2684375 -119.1875 89.5625 C-120.19533062 93.82639879 -122.11439186 96.73683566 -125 100 C-128.00313748 101.50156874 -130.79067522 101.09281204 -134.125 101.0625 C-135.40632813 101.05347656 -136.68765625 101.04445313 -138.0078125 101.03515625 C-138.99523437 101.02355469 -139.98265625 101.01195312 -141 101 C-141 100.34 -141 99.68 -141 99 C-140.01 99 -139.02 99 -138 99 C-136.81774763 92.16920852 -137.25535054 85.87368733 -138 79 C-139.32 79 -140.64 79 -142 79 C-142.66 83.29 -143.32 87.58 -144 92 C-144.66 92 -145.32 92 -146 92 C-146.495 87.545 -146.495 87.545 -147 83 C-148.32 83 -149.64 83 -151 83 C-151.6003934 90.4448782 -150.32711023 95.81383501 -146 102 C-140.10831835 107.63619255 -140.10831835 107.63619255 -126 105 C-126 118.86 -126 132.72 -126 147 C-101.91 147 -77.82 147 -53 147 C-54.79916435 150.5983287 -55.49491593 151.67124529 -58.4375 154 C-63.35237953 158.0872179 -65.04179514 160.58873842 -66 167 C-68.81185594 167.33972801 -71.62428236 167.67190212 -74.4375 168 C-75.6121582 168.14308594 -75.6121582 168.14308594 -76.81054688 168.2890625 C-82.24375619 168.91511131 -87.53074263 169.08759571 -93 169 C-93.28875 168.175 -93.5775 167.35 -93.875 166.5 C-97.25878864 159.76434525 -105.37959363 154.43232358 -112.25390625 151.6875 C-123.29430962 148.92347298 -133.96541084 148.95885304 -143.9375 154.6875 C-144.618125 155.120625 -145.29875 155.55375 -146 156 C-146.66 156 -147.32 156 -148 156 C-148.268125 156.556875 -148.53625 157.11375 -148.8125 157.6875 C-150.10122647 160.19712523 -151.52926478 162.59334236 -153 165 C-159.58154683 163.82994723 -164.32683187 158.26998841 -168.125 153.0625 C-172.19388636 146.53463896 -174.61049116 139.2675393 -177 132 C-177.33064453 131.00129883 -177.33064453 131.00129883 -177.66796875 129.98242188 C-184.03403975 110.24760179 -187.84266081 88.74825016 -188 68 C-188.01393799 66.99686768 -188.02787598 65.99373535 -188.04223633 64.96020508 C-188.11377455 56.12367932 -187.68720341 47.37480552 -187.0625 38.5625 C-186.97548828 37.25345703 -186.88847656 35.94441406 -186.79882812 34.59570312 C-186.39306239 28.68354611 -185.88861292 22.86224129 -185 17 C-182.9375 16.125 -182.9375 16.125 -180 16 C-178.33965458 17.35538401 -176.69068032 18.72828173 -175.1171875 20.18359375 C-162.11830358 31.33577276 -143.21121549 36.12997347 -126.390625 36.09765625 C-125.72825333 36.0971376 -125.06588165 36.09661896 -124.38343811 36.09608459 C-121.64391753 36.09029245 -118.90702142 36.08107168 -116.16845703 36.00366211 C-104.5594686 35.70939985 -104.5594686 35.70939985 -100.59130859 38.9934082 C-98.7265625 41.4296875 -98.7265625 41.4296875 -97.27587891 43.86279297 C-95.38836677 47.02453833 -93.48156573 47.95553028 -90 49 C-85.50999668 49.63216653 -82.05110706 49.41219885 -77.8125 47.75 C-74.77789144 44.78282719 -74.32753959 43.15394096 -72.9375 39.25 C-70.35578746 33.70235138 -67.56362768 31.84966357 -62.09472656 29.65917969 C-57.42983935 27.99255032 -52.72752267 26.47780783 -48 25 C-44.55320886 23.85988333 -41.11858024 22.6864858 -37.6875 21.5 C-36.86515869 21.21729248 -36.04281738 20.93458496 -35.19555664 20.64331055 C-24.15272111 16.76309836 -13.52284026 11.96569968 -4.6015625 4.25 C-3 3 -3 3 -1 3 C-0.67 2.01 -0.34 1.02 0 0 Z " fill="#FBFBFB" transform="translate(290,217)"/>
<path d="M0 0 C2.61385127 -0.03180661 5.22755484 -0.07972936 7.84082031 -0.14355469 C11.62953308 -0.23462837 15.4156818 -0.27356204 19.20532227 -0.30151367 C20.3710527 -0.3396669 21.53678314 -0.37782013 22.73783875 -0.41712952 C30.72808946 -0.39792759 30.72808946 -0.39792759 33.69180298 2.31619263 C35.25732422 4.50341797 35.25732422 4.50341797 36.46186829 6.69593811 C37.75873027 8.98983765 37.75873027 8.98983765 41.72485352 9.51489258 C41.72485352 24.03489258 41.72485352 38.55489258 41.72485352 53.51489258 C37.02300911 55.39563034 33.79894934 55.79076627 28.90527344 55.74194336 C28.13401123 55.74223541 27.36274902 55.74252747 26.56811523 55.74282837 C24.03040132 55.7414401 21.4929846 55.72590273 18.95532227 55.71020508 C17.19127055 55.70647316 15.42721676 55.70362703 13.66316223 55.70162964 C9.02876016 55.69400727 4.39448421 55.67437079 -0.23986816 55.65222168 C-5.80492293 55.62812847 -11.37001996 55.61897562 -16.935112 55.60731506 C-25.38187777 55.58794558 -33.82836703 55.5496133 -42.27514648 55.51489258 C-42.27514648 41.98489258 -42.27514648 28.45489258 -42.27514648 14.51489258 C-40.62514648 14.18489258 -38.97514648 13.85489258 -37.27514648 13.51489258 C-37.17202148 12.83426758 -37.06889648 12.15364258 -36.96264648 11.45239258 C-36.1278963 7.88573269 -34.78041894 4.85267064 -33.27514648 1.51489258 C-22.21799208 0.08861104 -11.13495881 0.10464263 0 0 Z " fill="#F7F7F7" transform="translate(208.275146484375,306.485107421875)"/>
<path d="M0 0 C0.99 0 1.98 0 3 0 C3.3748167 7.18577153 0.92884396 14.05604535 -3.375 19.8515625 C-5.10024591 21.60761638 -6.79726707 22.89863354 -9 24 C-12.96 24 -16.92 24 -21 24 C-21 37.86 -21 51.72 -21 66 C-16.71 66.33 -12.42 66.66 -8 67 C-6.35 67.66 -4.7 68.32 -3 69 C-3.66 69.66 -4.32 70.32 -5 71 C-3.35 72.32 -1.7 73.64 0 75 C-0.1730957 76.84106445 -0.1730957 76.84106445 -1 79 C-8.56722612 83.59113892 -17.76195463 85.42730123 -26.3125 87.3125 C-27.43978516 87.57611328 -28.56707031 87.83972656 -29.72851562 88.11132812 C-35.25831493 89.36292879 -40.32743848 90.35197712 -46 90 C-46.33 89.34 -46.66 88.68 -47 88 C-47.66 88.66 -48.32 89.32 -49 90 C-49.26414968 87.02184184 -49.29168974 85.45140458 -47.64453125 82.90234375 C-47.03996094 82.25394531 -46.43539062 81.60554688 -45.8125 80.9375 C-45.17699219 80.25300781 -44.54148437 79.56851563 -43.88671875 78.86328125 C-41.72130904 76.72477104 -39.41619933 74.84768184 -37 73 C-36.67 72.34 -36.34 71.68 -36 71 C-60.09 71 -84.18 71 -109 71 C-109 57.14 -109 43.28 -109 29 C-112.3 29.66 -115.6 30.32 -119 31 C-123.69048029 31 -125.27603379 30.69029337 -128.6875 27.4375 C-129.49371232 26.31627757 -130.26351972 25.1682101 -131 24 C-131.39445313 23.38640625 -131.78890625 22.7728125 -132.1953125 22.140625 C-135.10129225 17.06024082 -135.48159323 12.77911874 -135 7 C-133.34385343 6.61781233 -131.67542976 6.28604898 -130 6 C-129 7 -129 7 -128.90234375 9.06640625 C-128.91394531 9.89011719 -128.92554688 10.71382813 -128.9375 11.5625 C-128.94652344 12.38878906 -128.95554688 13.21507812 -128.96484375 14.06640625 C-128.98224609 15.02353516 -128.98224609 15.02353516 -129 16 C-128.34 16 -127.68 16 -127 16 C-127.02320313 15.31292969 -127.04640625 14.62585938 -127.0703125 13.91796875 C-127.08835938 13.01691406 -127.10640625 12.11585938 -127.125 11.1875 C-127.14820313 10.29417969 -127.17140625 9.40085937 -127.1953125 8.48046875 C-127 6 -127 6 -125 3 C-123.68 3 -122.36 3 -121 3 C-120.66151348 4.89492006 -120.32943089 6.79098466 -120 8.6875 C-119.814375 9.74324219 -119.62875 10.79898437 -119.4375 11.88671875 C-118.41968912 19.12953368 -118.41968912 19.12953368 -121 23 C-121.99 23 -122.98 23 -124 23 C-124 23.66 -124 24.32 -124 25 C-121.74926172 24.93981983 -119.49927675 24.85098794 -117.25 24.75 C-115.99703125 24.70359375 -114.7440625 24.6571875 -113.453125 24.609375 C-109.53863907 23.91858336 -108.40884296 23.07511867 -106 20 C-104.00764386 17.04836127 -102.65006646 14.5103589 -102 11 C-101.34 11 -100.68 11 -100 11 C-99.67 9.68 -99.34 8.36 -99 7 C-98.01 7 -97.02 7 -96 7 C-96 8.65 -96 10.3 -96 12 C-75.54 12 -55.08 12 -34 12 C-34.33 8.7 -34.66 5.4 -35 2 C-34.01 2.33 -33.02 2.66 -32 3 C-31.15625 5.109375 -31.15625 5.109375 -30.5 7.75 C-29.44534195 11.56972009 -28.52957638 14.86332529 -26 18 C-23.02171281 19.01443843 -20.19366406 19.16337701 -17.0625 19.1875 C-15.81146484 19.20876953 -15.81146484 19.20876953 -14.53515625 19.23046875 C-11.59564729 18.96324066 -9.58860739 18.43180982 -7 17 C-5.64741102 14.86757172 -5.64741102 14.86757172 -4.875 12.3125 C-4.39933594 10.98025391 -4.39933594 10.98025391 -3.9140625 9.62109375 C-3.61242187 8.75613281 -3.31078125 7.89117187 -3 7 C-2.43020214 5.61933596 -1.84881809 4.24332733 -1.25 2.875 C-0.8375 1.92625 -0.425 0.9775 0 0 Z M-98 15 C-99.89751708 16.86142878 -99.89751708 16.86142878 -100.5625 19.375 C-100.99755859 20.56222656 -100.99755859 20.56222656 -101.44140625 21.7734375 C-102.12166816 24.10237722 -102.12166816 24.10237722 -102 27 C-103.65 27.33 -105.3 27.66 -107 28 C-107 41.53 -107 55.06 -107 69 C-93.08106279 69.05817811 -93.08106279 69.05817811 -79.16210938 69.09765625 C-73.48458108 69.10960878 -67.80711735 69.12374435 -62.12963867 69.15087891 C-57.55200684 69.17261986 -52.97444424 69.1845713 -48.39676476 69.18975449 C-46.65087481 69.19344798 -44.90498863 69.20066045 -43.15912819 69.21146011 C-40.71252904 69.22599166 -38.26621548 69.22797725 -35.81958008 69.22705078 C-35.09884811 69.23424133 -34.37811615 69.24143188 -33.63554382 69.24884033 C-29.3506639 69.2312991 -27.14410942 68.65764377 -23 67 C-23 52.48 -23 37.96 -23 23 C-24.32 22.67 -25.64 22.34 -27 22 C-28.26298523 20.18104553 -28.26298523 20.18104553 -29.4675293 17.98852539 C-31.40889233 15.27620294 -32.38083743 14.16887035 -35.63272095 13.2819519 C-38.95404156 13.05732297 -42.1922568 13.07469528 -45.51953125 13.18359375 C-47.3392469 13.19701561 -47.3392469 13.19701561 -49.19572449 13.21070862 C-53.06951952 13.24878785 -56.93971536 13.34291269 -60.8125 13.4375 C-63.40686001 13.46906944 -66.00126561 13.49710272 -68.59570312 13.52148438 C-83.34644413 13.55597588 -83.34644413 13.55597588 -98 15 Z " fill="#0E0E0E" transform="translate(273,293)"/>
<path d="M0 0 C-0.15624459 8.28096302 -3.57232244 14.5932925 -9.44335938 20.43652344 C-21.70474861 31.59362607 -36.44333149 37.8202966 -52 43 C-54.50249379 43.86784205 -57.00254088 44.74277387 -59.5 45.625 C-60.6034375 46.00914062 -61.706875 46.39328125 -62.84375 46.7890625 C-68.3139021 48.73122758 -68.3139021 48.73122758 -73 52 C-74.99958364 52.04080783 -77.00045254 52.04254356 -79 52 C-79.13277344 51.32453125 -79.26554688 50.6490625 -79.40234375 49.953125 C-79.57894531 49.06109375 -79.75554687 48.1690625 -79.9375 47.25 C-80.11152344 46.36828125 -80.28554687 45.4865625 -80.46484375 44.578125 C-80.92368488 42.36764947 -81.43336074 40.18487932 -82 38 C-79.05828264 36.03885509 -77.91926055 35.66498208 -74.5625 35.2109375 C-61.3217304 33.22855559 -50.0603878 29.75808908 -38 24 C-36.90429688 23.505 -35.80859375 23.01 -34.6796875 22.5 C-28.84041479 19.75943467 -23.44179232 16.47719429 -18.0625 12.9375 C-17.43504883 12.52580566 -16.80759766 12.11411133 -16.16113281 11.68994141 C-11.67901631 8.66203879 -7.99254724 5.22245654 -4.375 1.1875 C-3 0 -3 0 0 0 Z " fill="#EE0000" transform="translate(299,194)"/>
<path d="M0 0 C3.75916368 0.64874456 6.3944638 2.36426815 9.5625 4.4375 C10.51253906 5.05496094 11.46257812 5.67242187 12.44140625 6.30859375 C14.29685015 7.53516964 16.14933599 8.76622399 18 10 C27.06290576 12.87174515 35.95103501 13.46326315 45.39453125 13.51171875 C46.70789963 13.52966995 48.02126801 13.54762115 49.37443542 13.56611633 C52.81836094 13.6130315 56.26222378 13.64321466 59.70635986 13.66955566 C63.23991284 13.69966157 66.77325056 13.7460861 70.30664062 13.79101562 C77.20430315 13.87638024 84.10203793 13.94401746 91 14 C89.33333333 19 87.66666667 24 86 29 C52.95553787 29.49173307 28.07992826 26.84967051 2.60546875 4.5390625 C1.74566406 3.70117188 0.88585937 2.86328125 0 2 C0 1.34 0 0.68 0 0 Z " fill="#EB0000" transform="translate(102,221)"/>
<path d="M0 0 C22.44 0 44.88 0 68 0 C66.20083565 3.5983287 65.50508407 4.67124529 62.5625 7 C57.64762047 11.0872179 55.95820486 13.58873842 55 20 C52.18814406 20.33972801 49.37571764 20.67190212 46.5625 21 C45.77939453 21.09539062 44.99628906 21.19078125 44.18945312 21.2890625 C38.75624381 21.91511131 33.46925737 22.08759571 28 22 C27.71125 21.175 27.4225 20.35 27.125 19.5 C23.57710819 12.43768706 15.36911054 7.56156356 8.25 4.67578125 C4.51103511 3.55279353 0.89064466 3.24702506 -3 3 C-2.01 2.67 -1.02 2.34 0 2 C0 1.34 0 0.68 0 0 Z " fill="#F7F7F7" transform="translate(169,364)"/>
<path d="M0 0 C-0.969375 0.28875 -1.93875 0.5775 -2.9375 0.875 C-6.10664203 1.64214682 -6.10664203 1.64214682 -7 4 C-9.72265625 4.8515625 -9.72265625 4.8515625 -13.0625 5.625 C-14.16722656 5.88539063 -15.27195312 6.14578125 -16.41015625 6.4140625 C-17.69212891 6.70410156 -17.69212891 6.70410156 -19 7 C-18.73896484 8.33417969 -18.73896484 8.33417969 -18.47265625 9.6953125 C-18.0477041 12.66646551 -18.03566756 14.92822877 -18.4375 17.875 C-18.53933594 18.65617187 -18.64117187 19.43734375 -18.74609375 20.2421875 C-18.87177734 21.11230469 -18.87177734 21.11230469 -19 22 C-24.30990503 24.14137154 -29.23295407 24.42107063 -34.875 24.625 C-35.75414062 24.66367188 -36.63328125 24.70234375 -37.5390625 24.7421875 C-39.69238793 24.83581034 -41.84616414 24.91896459 -44 25 C-44.66 23.35 -45.32 21.7 -46 20 C-46.99 20.495 -46.99 20.495 -48 21 C-47.52269162 19.5410574 -47.04308958 18.08286504 -46.5625 16.625 C-46.29566406 15.81289062 -46.02882812 15.00078125 -45.75390625 14.1640625 C-45 12 -45 12 -44 10 C-58.85 10 -73.7 10 -89 10 C-88.67 9.01 -88.34 8.02 -88 7 C-86.02483398 7.00169189 -86.02483398 7.00169189 -84.00976562 7.00341797 C-62.42596629 6.98140403 -18.95658889 -5.88307931 0 0 Z " fill="#110D0B" transform="translate(237,225)"/>
<path d="M0 0 C1.98 0 3.96 0 6 0 C6.33 1.65 6.66 3.3 7 5 C7.33 3.68 7.66 2.36 8 1 C9.65 1 11.3 1 13 1 C13 2.98 13 4.96 13 7 C13.99 7 14.98 7 16 7 C16.33 5.68 16.66 4.36 17 3 C18.32 3.33 19.64 3.66 21 4 C20.67 5.65 20.34 7.3 20 9 C20.721875 8.608125 21.44375 8.21625 22.1875 7.8125 C25 7 25 7 27.625 8.0625 C30.20970229 10.17107292 31.54481034 12.01303176 33 15 C33 15.66 33 16.32 33 17 C-10.91009778 17.52240438 -10.91009778 17.52240438 -21 13 C-16.99748043 7.55343415 -12.4970288 3.26805369 -6 1 C-3.7890625 1.25 -3.7890625 1.25 -2 2 C-1.67 2.66 -1.34 3.32 -1 4 C-0.67 2.68 -0.34 1.36 0 0 Z " fill="#EEEEEE" transform="translate(160,369)"/>
<path d="M0 0 C1.32 0.33 2.64 0.66 4 1 C3.67 2.65 3.34 4.3 3 6 C3.99 6 4.98 6 6 6 C6 4.35 6 2.7 6 1 C9.87132028 1.57352893 12.08172796 3.48704352 15 6 C14.8269043 7.84106445 14.8269043 7.84106445 14 10 C6.43277388 14.59113892 -2.76195463 16.42730123 -11.3125 18.3125 C-12.43978516 18.57611328 -13.56707031 18.83972656 -14.72851562 19.11132812 C-20.25831493 20.36292879 -25.32743848 21.35197712 -31 21 C-31.33 20.01 -31.66 19.02 -32 18 C-30.70703125 16.02734375 -30.70703125 16.02734375 -28.8125 13.9375 C-28.20019531 13.24527344 -27.58789062 12.55304688 -26.95703125 11.83984375 C-25.04852157 10.04561609 -23.39368203 9.0243473 -21 8 C-20.67 8.99 -20.34 9.98 -20 11 C-19.34 11 -18.68 11 -18 11 C-18 9.02 -18 7.04 -18 5 C-16.1875 4.3125 -16.1875 4.3125 -14 4 C-12.25 5.4375 -12.25 5.4375 -11 7 C-11 5.35 -11 3.7 -11 2 C-7.535 1.505 -7.535 1.505 -4 1 C-3.67 2.32 -3.34 3.64 -3 5 C-2.34 5 -1.68 5 -1 5 C-0.67 3.35 -0.34 1.7 0 0 Z " fill="#F3F3F3" transform="translate(258,362)"/>
<path d="M0 0 C1.50046875 0.00386719 1.50046875 0.00386719 3.03125 0.0078125 C4.0315625 0.00523438 5.031875 0.00265625 6.0625 0 C8.53125 0.1328125 8.53125 0.1328125 9.53125 1.1328125 C9.77512374 5.28051358 9.75984912 9.43191071 9.77148438 13.58618164 C9.78109897 15.66269399 9.81206247 17.73817727 9.84375 19.81445312 C9.90802443 27.93793098 9.17416288 33.84698674 5.53125 41.1328125 C4.21125 41.1328125 2.89125 41.1328125 1.53125 41.1328125 C-2.73608509 27.89414968 -4.2151462 15.09481208 -3.46875 1.1328125 C-2.46875 0.1328125 -2.46875 0.1328125 0 0 Z " fill="#D27F25" transform="translate(199.46875,43.8671875)"/>
<path d="M0 0 C1.32 0 2.64 0 4 0 C4.33848652 1.89492006 4.67056911 3.79098466 5 5.6875 C5.185625 6.74324219 5.37125 7.79898437 5.5625 8.88671875 C6.58031088 16.12953368 6.58031088 16.12953368 4 20 C3.01 20 2.02 20 1 20 C1 20.66 1 21.32 1 22 C3.25073828 21.93981983 5.50072325 21.85098794 7.75 21.75 C9.00296875 21.70359375 10.2559375 21.6571875 11.546875 21.609375 C15.46136093 20.91858336 16.59115704 20.07511867 19 17 C20.99235614 14.04836127 22.34993354 11.5103589 23 8 C23.66 8 24.32 8 25 8 C25.33 7.34 25.66 6.68 26 6 C25.855625 6.53625 25.71125 7.0725 25.5625 7.625 C24.90546252 10.39915827 24.44780052 13.18525388 24 16 C24.66 15.67 25.32 15.34 26 15 C25.29558607 18.1698627 24.54885258 21.13462272 23 24 C20.375 24.8125 20.375 24.8125 18 25 C17.67 24.34 17.34 23.68 17 23 C16.67 23.99 16.34 24.98 16 26 C4.63336402 28.76732989 4.63336402 28.76732989 -1 27 C-3.14992914 24.95006756 -4.45854973 23.44505905 -6 21 C-6.39445313 20.38640625 -6.78890625 19.7728125 -7.1953125 19.140625 C-10.10129225 14.06024082 -10.48159323 9.77911874 -10 4 C-8.34385343 3.61781233 -6.67542976 3.28604898 -5 3 C-4 4 -4 4 -3.90234375 6.06640625 C-3.91394531 6.89011719 -3.92554688 7.71382813 -3.9375 8.5625 C-3.94652344 9.38878906 -3.95554688 10.21507812 -3.96484375 11.06640625 C-3.98224609 12.02353516 -3.98224609 12.02353516 -4 13 C-3.34 13 -2.68 13 -2 13 C-2.02320313 12.31292969 -2.04640625 11.62585938 -2.0703125 10.91796875 C-2.08835938 10.01691406 -2.10640625 9.11585938 -2.125 8.1875 C-2.14820313 7.29417969 -2.17140625 6.40085937 -2.1953125 5.48046875 C-2 3 -2 3 0 0 Z " fill="#151515" transform="translate(148,296)"/>
<path d="M0 0 C1.051875 -0.03738281 2.10375 -0.07476562 3.1875 -0.11328125 C6 0.3125 6 0.3125 7.86328125 2.00390625 C9.21021058 4.73942252 9.30720596 6.52994901 9.1875 9.5625 C9.16042969 10.45453125 9.13335937 11.3465625 9.10546875 12.265625 C9.07066406 12.94109375 9.03585938 13.6165625 9 14.3125 C6.31306278 14.65101178 3.62559711 14.983436 0.9375 15.3125 C-0.19075195 15.45558594 -0.19075195 15.45558594 -1.34179688 15.6015625 C-5.93421317 16.15821902 -10.3742135 16.41079028 -15 16.3125 C-14.83655176 9.62598125 -13.90303134 5.98205366 -9 1.3125 C-5.82116571 0.25288857 -3.34114657 0.0777963 0 0 Z " fill="#E0C128" transform="translate(208,233.6875)"/>
<path d="M0 0 C0.99 0.33 1.98 0.66 3 1 C3.84375 3.109375 3.84375 3.109375 4.5 5.75 C6.28392222 12.57105895 6.28392222 12.57105895 11.1875 17.3125 C11.785625 17.539375 12.38375 17.76625 13 18 C11.515 18.495 11.515 18.495 10 19 C10.99 19.99 10.99 19.99 12 21 C9.8125 20.9375 9.8125 20.9375 7 20 C6.42032471 18.83976318 5.84064941 17.67952637 5.2434082 16.48413086 C3.32853715 13.71674359 2.38414512 13.08075109 -0.95913696 12.37796021 C-4.88590984 12.18835025 -8.78004291 12.21272717 -12.70703125 12.31640625 C-14.15717679 12.32947125 -15.60735334 12.33943117 -17.05754089 12.34642029 C-20.86418814 12.37307691 -24.66894887 12.44177239 -28.47485352 12.51934814 C-32.36253336 12.59111289 -36.25051979 12.62295963 -40.13867188 12.65820312 C-47.75997226 12.73315102 -55.37972126 12.85252923 -63 13 C-63 13.99 -63 14.98 -63 16 C-63.66 16 -64.32 16 -65 16 C-65.33 16.66 -65.66 17.32 -66 18 C-67.18414294 14.44757118 -66.69535532 13.30169438 -65.5625 9.8125 C-65.27503906 8.91144531 -64.98757812 8.01039063 -64.69140625 7.08203125 C-64.46324219 6.39496094 -64.23507813 5.70789063 -64 5 C-63.01 5 -62.02 5 -61 5 C-61 6.65 -61 8.3 -61 10 C-40.54 10 -20.08 10 1 10 C0.67 6.7 0.34 3.4 0 0 Z " fill="#252525" transform="translate(238,295)"/>
<path d="M0 0 C1.99609375 0.05078125 1.99609375 0.05078125 4.4375 0.3125 C5.64212891 0.43044922 5.64212891 0.43044922 6.87109375 0.55078125 C9 1 9 1 11 3 C11.94168998 9.57960011 10.76402636 15.04671245 8 21 C7.34 21.66 6.68 22.32 6 23 C3.5 22.8125 3.5 22.8125 1 22 C-1.05312708 18.92030937 -1.24997754 18.28031295 -1.23046875 14.8046875 C-1.22853516 14.00675781 -1.22660156 13.20882812 -1.22460938 12.38671875 C-1.20624023 11.14341797 -1.20624023 11.14341797 -1.1875 9.875 C-1.18685547 9.03839844 -1.18621094 8.20179687 -1.18554688 7.33984375 C-1.14033163 1.14033163 -1.14033163 1.14033163 0 0 Z " fill="#D58026" transform="translate(224,45)"/>
<path d="M0 0 C2.25 0.0625 2.25 0.0625 5 1 C7.85369722 5.15824452 9.57892936 9.1446753 11 14 C8.72312123 16.27687877 3.37677001 15.45734368 0.296875 15.62109375 C-2.85393468 15.98321287 -5.10868227 16.76869745 -8 18 C-8.99 18 -9.98 18 -11 18 C-11.3125 14.75 -11.3125 14.75 -11 11 C-8.875 9 -8.875 9 -6 7 C-3.90569929 4.74384467 -1.94792911 2.38303355 0 0 Z " fill="#DB7C8B" transform="translate(280,31)"/>
<path d="M0 0 C0.33 0 0.66 0 1 0 C1 14.52 1 29.04 1 44 C7.08888672 43.98259766 7.08888672 43.98259766 13.30078125 43.96484375 C16.56609822 43.95839911 19.83141336 43.95298114 23.09673309 43.94824982 C26.52779954 43.94300005 29.95884071 43.93600117 33.38989258 43.92456055 C37.33935222 43.91147585 41.28880204 43.90673774 45.23828125 43.90234375 C47.05613884 43.89460182 47.05613884 43.89460182 48.91072083 43.88670349 C55.99825666 43.88624215 62.95541645 44.21099367 70 45 C70 45.33 70 45.66 70 46 C46.57 46 23.14 46 -1 46 C-1.020625 38.595625 -1.04125 31.19125 -1.0625 23.5625 C-1.071604 21.2222876 -1.08070801 18.8820752 -1.09008789 16.47094727 C-1.09300694 14.62776751 -1.09555552 12.78458712 -1.09765625 10.94140625 C-1.10277222 9.97489136 -1.10788818 9.00837646 -1.11315918 8.01257324 C-1.11328003 7.09907104 -1.11340088 6.18556885 -1.11352539 5.24438477 C-1.115746 4.44718521 -1.11796661 3.64998566 -1.12025452 2.82862854 C-1 1 -1 1 0 0 Z " fill="#020202" transform="translate(165,318)"/>
<path d="M0 0 C0.99 0 1.98 0 3 0 C3.3748167 7.18577153 0.92884396 14.05604535 -3.375 19.8515625 C-5.10024591 21.60761638 -6.79726707 22.89863354 -9 24 C-12.96 24 -16.92 24 -21 24 C-20.67 38.19 -20.34 52.38 -20 67 C-20.66 67 -21.32 67 -22 67 C-22.00586624 66.45320587 -22.01173248 65.90641174 -22.01777649 65.3430481 C-22.08158104 59.66536481 -22.16596575 53.98825521 -22.26245117 48.31103516 C-22.2957596 46.19066926 -22.3237729 44.07021343 -22.34643555 41.94970703 C-22.37987303 38.90618465 -22.43218253 35.86349088 -22.48828125 32.8203125 C-22.49467117 31.86818878 -22.5010611 30.91606506 -22.50764465 29.93508911 C-22.52743881 29.05432709 -22.54723297 28.17356506 -22.56762695 27.26611328 C-22.57873001 26.48889923 -22.58983307 25.71168518 -22.60127258 24.91091919 C-22.85203989 22.59221345 -22.85203989 22.59221345 -26 21 C-23.72312123 18.72312123 -18.37677001 19.54265632 -15.296875 19.37890625 C-12.07137223 19.00820273 -9.81828977 18.603338 -7 17 C-5.64741102 14.86757172 -5.64741102 14.86757172 -4.875 12.3125 C-4.55789063 11.42433594 -4.24078125 10.53617187 -3.9140625 9.62109375 C-3.61242187 8.75613281 -3.31078125 7.89117187 -3 7 C-2.43020214 5.61933596 -1.84881809 4.24332733 -1.25 2.875 C-0.8375 1.92625 -0.425 0.9775 0 0 Z " fill="#101010" transform="translate(273,293)"/>
<path d="M0 0 C1.32 0 2.64 0 4 0 C3.70987498 3.12061303 2.9806088 4.01785779 0.62890625 6.18359375 C-17.43266517 19.45942396 -17.43266517 19.45942396 -27 18 C-31.81484517 15.53907914 -33.02525407 12.11185066 -34.6171875 7.21875 C-35.03379472 4.80412859 -34.76502257 3.30554746 -34 1 C-33.01 1.33 -32.02 1.66 -31 2 C-30.12109375 3.99609375 -30.12109375 3.99609375 -29.4375 6.4375 C-28.41492741 10.09858228 -28.41492741 10.09858228 -26 13 C-20.25077063 13.67390234 -16.80853331 12.1921257 -12.1875 9 C-6.19425676 5 -6.19425676 5 -4 5 C-4 4.34 -4 3.68 -4 3 C-2.68 2.67 -1.36 2.34 0 2 C0 1.34 0 0.68 0 0 Z " fill="#151515" transform="translate(253,98)"/>
<path d="M0 0 C0.66 0.33 1.32 0.66 2 1 C0.68448876 5.60428934 -1.09196486 9.18320388 -4 13 C-4.66 13 -5.32 13 -6 13 C-6 13.66 -6 14.32 -6 15 C-7.42578125 16.25390625 -7.42578125 16.25390625 -9.3125 17.5625 C-9.92738281 17.99691406 -10.54226562 18.43132812 -11.17578125 18.87890625 C-15.21814424 21.363185 -19.40345597 21.78797898 -24 21 C-35.66793025 16.3328279 -35.66793025 16.3328279 -39 12 C-39 11.01 -39 10.02 -39 9 C-35.02372114 9.78105478 -32.32153674 11.6120925 -29 13.84375 C-24.75540823 16.29765462 -19.80876635 16.75353864 -15 16 C-12.66545339 14.16641665 -12.66545339 14.16641665 -11 12 C-10.01 11.67 -9.02 11.34 -8 11 C-6.3897775 8.71378953 -6.3897775 8.71378953 -4.9375 6 C-2.20295567 1.10147783 -2.20295567 1.10147783 0 0 Z " fill="#141414" transform="translate(156,101)"/>
<path d="M0 0 C1.32 0 2.64 0 4 0 C4.33848652 1.89492006 4.67056911 3.79098466 5 5.6875 C5.185625 6.74324219 5.37125 7.79898437 5.5625 8.88671875 C6.58031088 16.12953368 6.58031088 16.12953368 4 20 C3.01 20 2.02 20 1 20 C1 20.66 1 21.32 1 22 C4.63 22 8.26 22 12 22 C8.2794164 24.48038907 6.40203429 24.46337203 2 24 C-0.4375 22.125 -0.4375 22.125 -2 20 C-2 19.34 -2 18.68 -2 18 C-2.66 18 -3.32 18 -4 18 C-4.99 13.05 -5.98 8.1 -7 3 C-6.01 3.33 -5.02 3.66 -4 4 C-4 6.97 -4 9.94 -4 13 C-3.34 13 -2.68 13 -2 13 C-2.02320313 12.31292969 -2.04640625 11.62585938 -2.0703125 10.91796875 C-2.08835938 10.01691406 -2.10640625 9.11585938 -2.125 8.1875 C-2.14820313 7.29417969 -2.17140625 6.40085937 -2.1953125 5.48046875 C-2 3 -2 3 0 0 Z " fill="#CECECE" transform="translate(148,296)"/>
<path d="M0 0 C2.01822917 0.06510417 4.03645833 0.13020833 6.0546875 0.1953125 C5.07749673 8.79459127 3.45317654 17.65504558 -0.9453125 25.1953125 C-1.9353125 25.1953125 -2.9253125 25.1953125 -3.9453125 25.1953125 C-4.00317918 21.40370953 -4.03886304 17.61221939 -4.0703125 13.8203125 C-4.08707031 12.74007812 -4.10382813 11.65984375 -4.12109375 10.546875 C-4.12753906 9.515625 -4.13398438 8.484375 -4.140625 7.421875 C-4.15109863 6.46877441 -4.16157227 5.51567383 -4.17236328 4.53369141 C-3.88054963 1.52832457 -3.10168611 0.31141427 0 0 Z " fill="#C77823" transform="translate(173.9453125,47.8046875)"/>
<path d="M0 0 C-0.26008662 3.72790821 -0.84700902 5.78007546 -3 8.875 C-6.54749747 11.38781071 -8.52501598 11.67744061 -12.77734375 11.421875 C-16.28484768 10.75612733 -18.40134475 9.4037561 -21 7 C-21.875 4.25 -21.875 4.25 -22 2 C-18.7 2 -15.4 2 -12 2 C-11.67 3.98 -11.34 5.96 -11 8 C-10.34 7.67 -9.68 7.34 -9 7 C-8.34227572 3.97065509 -8.34227572 3.97065509 -8 1 C-5.23735711 0.40267181 -2.83967231 0 0 0 Z " fill="#A48D1D" transform="translate(215,252)"/>
<path d="M0 0 C1.98 0 3.96 0 6 0 C6.33 7.26 6.66 14.52 7 22 C6.34 22 5.68 22 5 22 C4.67 20.35 4.34 18.7 4 17 C3.01 21.62 2.02 26.24 1 31 C0.67 31 0.34 31 0 31 C0 20.77 0 10.54 0 0 Z " fill="#CDCDCD" transform="translate(213,44)"/>
<path d="M0 0 C0.33 0 0.66 0 1 0 C1.10055986 7.39673626 1.08709182 14.75951228 0.70703125 22.1484375 C-0.73849285 43.79983561 -0.73849285 43.79983561 3 65 C3.21608346 66.91669758 3.3887142 68.83844643 3.53515625 70.76171875 C3.62216797 71.87998047 3.70917969 72.99824219 3.79882812 74.15039062 C3.88583984 75.31763672 3.97285156 76.48488281 4.0625 77.6875 C4.15337891 78.86634766 4.24425781 80.04519531 4.33789062 81.25976562 C4.5619806 84.17293532 4.78254296 87.0863289 5 90 C3.28230555 86.93092704 2.53334106 84.20122289 1.96484375 80.73828125 C1.7956543 79.71001221 1.62646484 78.68174316 1.45214844 77.62231445 C1.19739746 75.9839563 1.19739746 75.9839563 0.9375 74.3125 C0.7612207 73.18996826 0.58494141 72.06743652 0.40332031 70.91088867 C-0.95484155 61.9435544 -1.86812362 53.07231946 -2 44 C-2.01611328 42.99614258 -2.03222656 41.99228516 -2.04882812 40.95800781 C-2.12506007 31.97026153 -1.65058141 23.08368183 -1 14.125 C-0.90320224 12.74352059 -0.80684616 11.36201017 -0.7109375 9.98046875 C-0.47826952 6.65331657 -0.24123032 3.32654042 0 0 Z " fill="#B6B6B6" transform="translate(104,241)"/>
<path d="M0 0 C-0.33 0.99 -0.66 1.98 -1 3 C-3.42811985 3.8582411 -5.6886303 4.49939065 -8.1875 5.0625 C-9.25387695 5.31628418 -9.25387695 5.31628418 -10.34179688 5.57519531 C-17.17050258 7.14755479 -24.04182236 8.1737164 -31 9 C-31 8.34 -31 7.68 -31 7 C-32.32 6.67 -33.64 6.34 -35 6 C-31.62581286 5.18409943 -28.25051419 4.3728913 -24.875 3.5625 C-23.92367187 3.33240234 -22.97234375 3.10230469 -21.9921875 2.86523438 C-14.52288 1.07571279 -7.68693699 -0.1325334 0 0 Z " fill="#141414" transform="translate(110,135)"/>
<path d="M0 0 C0.33 0 0.66 0 1 0 C1 14.52 1 29.04 1 44 C1.99 43.505 1.99 43.505 3 43 C4.93994053 43.03725144 6.87878949 43.15274833 8.8125 43.3125 C9.85019531 43.39113281 10.88789063 43.46976562 11.95703125 43.55078125 C14.92348331 43.98870421 17.27877206 44.76765093 20 46 C20 46.33 20 46.66 20 47 C18.02 47 16.04 47 14 47 C14 48.65 14 50.3 14 52 C13.01 52 12.02 52 11 52 C11 50.35 11 48.7 11 47 C10.01 47 9.02 47 8 47 C7.67 48.32 7.34 49.64 7 51 C6.34 51 5.68 51 5 51 C4.505 49.515 4.505 49.515 4 48 C2.35 47.67 0.7 47.34 -1 47 C-0.67 31.49 -0.34 15.98 0 0 Z " fill="#181818" transform="translate(250,316)"/>
<path d="M0 0 C3.19704607 2.89646909 4.99931526 5.56636268 6.75 9.5 C7.17796875 10.4384375 7.6059375 11.376875 8.046875 12.34375 C9 15 9 15 9 19 C6 18 6 18 4.83203125 16.00390625 C4.49558594 15.19824219 4.15914062 14.39257812 3.8125 13.5625 C3.46832031 12.75941406 3.12414062 11.95632812 2.76953125 11.12890625 C2 9 2 9 2 7 C1.01 7 0.02 7 -1 7 C-1.18175781 7.56847656 -1.36351563 8.13695312 -1.55078125 8.72265625 C-3.14084634 13.60701003 -4.90459778 18.31029027 -7 23 C-7.99 23 -8.98 23 -10 23 C-9.61106508 17.94384598 -7.77752394 14.53111747 -5.2734375 10.25390625 C-4.1143529 8.20239762 -3.15178032 6.17409414 -2.25 4 C-1 1 -1 1 0 0 Z " fill="#1A1415" transform="translate(115,37)"/>
<path d="M0 0 C0.99 0 1.98 0 3 0 C3 1.65 3 3.3 3 5 C33.195 5.495 33.195 5.495 64 6 C64 6.33 64 6.66 64 7 C43.21 7.33 22.42 7.66 1 8 C1 8.99 1 9.98 1 11 C0.34 11 -0.32 11 -1 11 C-1.33 11.66 -1.66 12.32 -2 13 C-3.18414294 9.44757118 -2.69535532 8.30169438 -1.5625 4.8125 C-1.27503906 3.91144531 -0.98757812 3.01039063 -0.69140625 2.08203125 C-0.46324219 1.39496094 -0.23507813 0.70789063 0 0 Z " fill="#000000" transform="translate(174,300)"/>
<path d="M0 0 C3.83509411 1.5523 5.0326305 4.45215071 6.625 8.0625 C7.34545764 10.0437585 8.03281343 12.03919589 8.625 14.0625 C7.635 14.3925 6.645 14.7225 5.625 15.0625 C3.975 11.7625 2.325 8.4625 0.625 5.0625 C-3.39828827 7.07414413 -4.47067207 8.17763966 -7 11.6875 C-8.07854973 13.18051426 -9.19416951 14.64899355 -10.375 16.0625 C-11.035 16.0625 -11.695 16.0625 -12.375 16.0625 C-11.83822564 11.90801354 -10.57350793 9.60287665 -7.9375 6.375 C-7.32003906 5.60800781 -6.70257813 4.84101562 -6.06640625 4.05078125 C-2.68046301 0.0705385 -2.68046301 0.0705385 0 0 Z " fill="#141011" transform="translate(282.375,30.9375)"/>
<path d="M0 0 C0.33 0 0.66 0 1 0 C1 8.91 1 17.82 1 27 C-9.56 27 -20.12 27 -31 27 C-28.03 27.33 -25.06 27.66 -22 28 C-22 28.33 -22 28.66 -22 29 C-26.62 29 -31.24 29 -36 29 C-36 27.68 -36 26.36 -36 25 C-32.39075992 23.19537996 -28.16126624 23.8097545 -24.1875 23.8125 C-23.24366455 23.81185547 -22.2998291 23.81121094 -21.32739258 23.81054688 C-13.9982412 23.86562974 -7.21017175 24.61008737 0 26 C0 17.42 0 8.84 0 0 Z " fill="#C8C8C8" transform="translate(317,93)"/>
<path d="M0 0 C0.99 0 1.98 0 3 0 C3.70226141 1.24176695 4.38629109 2.49385599 5.0625 3.75 C5.44535156 4.44609375 5.82820313 5.1421875 6.22265625 5.859375 C7 8 7 8 6.9296875 10.125 C5.56946645 12.86830295 3.89337166 13.22649977 1.0625 14.25 C0.16660156 14.58515625 -0.72929688 14.9203125 -1.65234375 15.265625 C-4 16 -4 16 -6 16 C-5.37183502 12.05050296 -4.1354471 8.80107972 -2.4375 5.1875 C-1.98246094 4.21167969 -1.52742188 3.23585937 -1.05859375 2.23046875 C-0.70925781 1.49441406 -0.35992187 0.75835937 0 0 Z " fill="#DE7081" transform="translate(114,44)"/>
<path d="M0 0 C22.44 0 44.88 0 68 0 C65.91100178 4.17799643 64.94455388 4.92391901 61 7 C61 6.34 61 5.68 61 5 C62.32 4.01 63.64 3.02 65 2 C46.19 1.67 27.38 1.34 8 1 C8 1.66 8 2.32 8 3 C10.475 3.99 10.475 3.99 13 5 C12.01 5.495 12.01 5.495 11 6 C10.319375 5.71125 9.63875 5.4225 8.9375 5.125 C5.01408188 3.62241434 1.16410249 3.34474051 -3 3 C-2.01 2.67 -1.02 2.34 0 2 C0 1.34 0 0.68 0 0 Z " fill="#C1C1C1" transform="translate(169,364)"/>
<path d="M0 0 C0.66 0 1.32 0 2 0 C2.05395478 1.62463842 2.09277195 3.24978541 2.125 4.875 C2.14820313 5.77992188 2.17140625 6.68484375 2.1953125 7.6171875 C2 10 2 10 0 12 C-2.3125 11.6875 -2.3125 11.6875 -5 11 C-6.3921875 10.7215625 -6.3921875 10.7215625 -7.8125 10.4375 C-8.534375 10.293125 -9.25625 10.14875 -10 10 C-10 7.36 -10 4.72 -10 2 C-8.35 1.67 -6.7 1.34 -5 1 C-5 1.99 -5 2.98 -5 4 C-1.87802522 2.6910428 -1.87802522 2.6910428 0 0 Z " fill="#B7B7B7" transform="translate(263,292)"/>
<path d="M0 0 C0.66 0 1.32 0 2 0 C2 0.66 2 1.32 2 2 C3.98 2 5.96 2 8 2 C8 2.66 8 3.32 8 4 C5.69 4.33 3.38 4.66 1 5 C1 9.95 1 14.9 1 20 C0.34 20 -0.32 20 -1 20 C-1.33 16.7 -1.66 13.4 -2 10 C-3.175625 11.98 -3.175625 11.98 -4.375 14 C-5.7109375 16.25 -5.7109375 16.25 -7 18 C-7.66 18 -8.32 18 -9 18 C-8.38801624 14.56049636 -7.07941153 12.48435515 -4.9375 9.75 C-4.38964844 9.04359375 -3.84179688 8.3371875 -3.27734375 7.609375 C-2.85582031 7.07828125 -2.43429688 6.5471875 -2 6 C-3.65 5.67 -5.3 5.34 -7 5 C-7 4.34 -7 3.68 -7 3 C-4.69 3 -2.38 3 0 3 C0 2.01 0 1.02 0 0 Z " fill="#181818" transform="translate(225,324)"/>
<path d="M0 0 C1.8253125 0.0309375 1.8253125 0.0309375 3.6875 0.0625 C3.3575 1.0525 3.0275 2.0425 2.6875 3.0625 C1.0375 3.0625 -0.6125 3.0625 -2.3125 3.0625 C-2.3125 4.7125 -2.3125 6.3625 -2.3125 8.0625 C-2.704375 7.546875 -3.09625 7.03125 -3.5 6.5 C-5.2343174 4.78222542 -5.2343174 4.78222542 -7.640625 5.29296875 C-10.51521494 6.12088427 -12.43031731 7.22834793 -14.875 8.9375 C-15.61878906 9.45054687 -16.36257812 9.96359375 -17.12890625 10.4921875 C-19.21091371 11.9894451 -21.26821791 13.51422286 -23.3125 15.0625 C-23.6425 14.4025 -23.9725 13.7425 -24.3125 13.0625 C-21.07522946 6.58795893 -15.82266109 3.89742121 -9.3125 1.0625 C-6.15165898 0.24834398 -3.25675186 -0.05519918 0 0 Z " fill="#212121" transform="translate(162.3125,365.9375)"/>
<path d="M0 0 C1.051875 -0.03738281 2.10375 -0.07476562 3.1875 -0.11328125 C6 0.3125 6 0.3125 7.86328125 2.00390625 C9.21021058 4.73942252 9.30720596 6.52994901 9.1875 9.5625 C9.16042969 10.45453125 9.13335937 11.3465625 9.10546875 12.265625 C9.07066406 12.94109375 9.03585938 13.6165625 9 14.3125 C6.31306278 14.65101178 3.62559711 14.983436 0.9375 15.3125 C-0.19075195 15.45558594 -0.19075195 15.45558594 -1.34179688 15.6015625 C-5.93421317 16.15821902 -10.3742135 16.41079028 -15 16.3125 C-14.83655176 9.62598125 -13.90303134 5.98205366 -9 1.3125 C-5.82116571 0.25288857 -3.34114657 0.0777963 0 0 Z M-10 6.3125 C-10.99 6.6425 -11.98 6.9725 -13 7.3125 C-13.33 9.6225 -13.66 11.9325 -14 14.3125 C-11.27076612 14.3395817 -8.54180363 14.35937847 -5.8125 14.375 C-5.04357422 14.38337891 -4.27464844 14.39175781 -3.48242188 14.40039062 C0.48526789 14.41741934 4.12571234 14.29854115 8 13.3125 C8.0928125 11.45625 8.0928125 11.45625 8.1875 9.5625 C8.22230469 8.86640625 8.25710937 8.1703125 8.29296875 7.453125 C7.90247978 4.59995224 7.04312725 3.3289197 5 1.3125 C-1.57613575 -0.30366896 -5.76226161 1.04743109 -10 6.3125 Z " fill="#A38C1C" transform="translate(208,233.6875)"/>
<path d="M0 0 C-0.99852802 2.89573124 -1.96094156 3.97265909 -4.5 5.75 C-9.02436092 7.36584319 -13.23563195 7.63142227 -18 7 C-18.99 6.34 -19.98 5.68 -21 5 C-21 3.68 -21 2.36 -21 1 C-20.35933594 1.09539062 -19.71867188 1.19078125 -19.05859375 1.2890625 C-12.14481013 2.17518082 -6.72026386 0 0 0 Z " fill="#181818" transform="translate(204,130)"/>
<path d="M0 0 C2.875 -0.1875 2.875 -0.1875 6 0 C6.66 0.99 7.32 1.98 8 3 C9.32 2.01 10.64 1.02 12 0 C13 1 13 1 13.0625 4.5625 C13.041875 5.696875 13.02125 6.83125 13 8 C12.113125 7.814375 11.22625 7.62875 10.3125 7.4375 C7.14821189 7.01957516 5.05160358 7.19222258 2 8 C2 7.34 2 6.68 2 6 C1.34 6 0.68 6 0 6 C0 4.02 0 2.04 0 0 Z " fill="#D0D0D0" transform="translate(182,196)"/>
<path d="M0 0 C0.99 0.99 1.98 1.98 3 3 C3.99 2.01 4.98 1.02 6 0 C7.28317892 3.84953676 7.06643637 6.94738135 7 11 C4.03 11 1.06 11 -2 11 C-2.25 3.375 -2.25 3.375 0 0 Z " fill="#AFAFAF" transform="translate(157,301)"/>
<path d="M0 0 C4.875 4.75 4.875 4.75 6 7 C7.32 7.33 8.64 7.66 10 8 C10 22.52 10 37.04 10 52 C8.02 52.495 8.02 52.495 6 53 C6.33 52.34 6.66 51.68 7 51 C7.66 51 8.32 51 9 51 C9 37.14 9 23.28 9 9 C7.35 8.67 5.7 8.34 4 8 C1.6875 6.1875 1.6875 6.1875 0 4 C0 2.68 0 1.36 0 0 Z " fill="#CECECE" transform="translate(240,308)"/>
<path d="M0 0 C-6.4932916 2.66730421 -12.93745207 4.19611116 -19.8125 5.5625 C-20.82892578 5.77068359 -21.84535156 5.97886719 -22.89257812 6.19335938 C-43.16645524 10.31532674 -43.16645524 10.31532674 -49 10 C-49 9.67 -49 9.34 -49 9 C-45.18696108 7.80842534 -41.59900541 6.88224429 -37.625 6.4375 C-34.1963063 6.40206859 -34.1963063 6.40206859 -33 5 C-31.15140788 4.69341904 -29.29539869 4.43142044 -27.4375 4.1875 C-21.27370129 3.30111302 -15.36686997 1.92030503 -9.38256836 0.2331543 C-5.82187231 -0.72805076 -3.51379794 -1.07100446 0 0 Z " fill="#C3C3C3" transform="translate(247,221)"/>
<path d="M0 0 C0.99 0 1.98 0 3 0 C4.36011539 2.72023078 4.2062431 4.9661881 4.25 8 C4.27578125 9.0725 4.3015625 10.145 4.328125 11.25 C4.21984375 12.1575 4.1115625 13.065 4 14 C3.01 14.66 2.02 15.32 1 16 C-1.25414782 12.61877827 -1.24544447 11.3935272 -1.1875 7.4375 C-1.18105469 6.46683594 -1.17460937 5.49617188 -1.16796875 4.49609375 C-1 2 -1 2 0 0 Z " fill="#1E1E1E" transform="translate(149,298)"/>
<path d="M0 0 C5.35810969 -0.16898112 10.19349172 0.43488578 15.4375 1.5 C16.16904297 1.64308594 16.90058594 1.78617188 17.65429688 1.93359375 C19.43735486 2.28321296 21.21885203 2.64077688 23 3 C23.33 4.32 23.66 5.64 24 7 C15.45988044 6.55052002 7.98466367 3.85091417 0 1 C0 0.67 0 0.34 0 0 Z " fill="#1D1D1D" transform="translate(282,163)"/>
<path d="M0 0 C0.66 0.33 1.32 0.66 2 1 C-0.3991093 6.41459056 -4.07447947 7.9591709 -9.1875 10.3125 C-9.93708984 10.67150391 -10.68667969 11.03050781 -11.45898438 11.40039062 C-13.29989266 12.27980541 -15.14916554 13.14167286 -17 14 C-16.41978362 10.91230581 -16.26461057 10.20644952 -13.671875 8.18359375 C-12.70765625 7.60738281 -11.7434375 7.03117187 -10.75 6.4375 C-9.79609375 5.85871094 -8.8421875 5.27992187 -7.859375 4.68359375 C-6.91578125 4.12800781 -5.9721875 3.57242188 -5 3 C-4.09765625 2.41347656 -3.1953125 1.82695313 -2.265625 1.22265625 C-1.51796875 0.81917969 -0.7703125 0.41570312 0 0 Z " fill="#121212" transform="translate(304,88)"/>
<path d="M0 0 C-0.60111152 3.62866686 -0.91751743 3.9370171 -4.08984375 6.359375 C-5.36465833 7.16857052 -6.64760398 7.96506823 -7.9375 8.75 C-8.58396484 9.16121094 -9.23042969 9.57242188 -9.89648438 9.99609375 C-14.7017364 13 -14.7017364 13 -17 13 C-17 12.34 -17 11.68 -17 11 C-17.66 10.67 -18.32 10.34 -19 10 C-17.845 9.46375 -16.69 8.9275 -15.5 8.375 C-11.51767903 6.40859639 -8.18942408 3.98078565 -4.76171875 1.171875 C-3 0 -3 0 0 0 Z " fill="#1A1A1A" transform="translate(100,171)"/>
<path d="M0 0 C4.8375 3.34903846 4.8375 3.34903846 5.66015625 6.64453125 C5.77230469 7.42183594 5.88445312 8.19914062 6 9 C1.55257542 9.02483101 -2.89481178 9.04292183 -7.34228516 9.05493164 C-8.85336002 9.05994162 -10.36443009 9.06675144 -11.87548828 9.07543945 C-14.05502512 9.08765176 -16.23449753 9.09326178 -18.4140625 9.09765625 C-20.37786865 9.10551147 -20.37786865 9.10551147 -22.38134766 9.11352539 C-25.69013513 9.00972117 -28.75595018 8.63432368 -32 8 C-32 7.67 -32 7.34 -32 7 C-20.78 7 -9.56 7 2 7 C1.34 4.69 0.68 2.38 0 0 Z " fill="#878787" transform="translate(187,377)"/>
<path d="M0 0 C4.93026507 0.0441119 9.85924437 0.11389864 14.78881836 0.20751953 C16.4657976 0.23574768 18.14291035 0.2569531 19.82006836 0.27099609 C22.23100218 0.29240125 24.64032784 0.33903426 27.05078125 0.390625 C27.80087967 0.39185364 28.55097809 0.39308228 29.32380676 0.39434814 C34.52052491 0.5406325 34.52052491 0.5406325 36.99682617 2.91308594 C38 5 38 5 38 7 C37.01 6.67 36.02 6.34 35 6 C35 5.01 35 4.02 35 3 C23.78 2.67 12.56 2.34 1 2 C0.67 1.34 0.34 0.68 0 0 Z " fill="#B7B7B7" transform="translate(152,253)"/>
<path d="M0 0 C1.31223496 3.93670488 0.24296256 6.12488144 -1 10 C-0.34 9.67 0.32 9.34 1 9 C0.29558607 12.1698627 -0.45114742 15.13462272 -2 18 C-4.625 18.8125 -4.625 18.8125 -7 19 C-5.68 16.69 -4.36 14.38 -3 12 C-4.98 12.99 -4.98 12.99 -7 14 C-5.41037341 9.96479403 -3.71767682 5.98188718 -2 2 C-1.34 2 -0.68 2 0 2 C0 1.34 0 0.68 0 0 Z " fill="#858585" transform="translate(173,302)"/>
<path d="M0 0 C1.32 0 2.64 0 4 0 C4 0.66 4 1.32 4 2 C3.01 2 2.02 2 1 2 C1 2.66 1 3.32 1 4 C0.34 4 -0.32 4 -1 4 C-1 8.29 -1 12.58 -1 17 C-1.66 17 -2.32 17 -3 17 C-3 16.34 -3 15.68 -3 15 C-3.66 15 -4.32 15 -5 15 C-5.66 11.04 -6.32 7.08 -7 3 C-6.01 3.33 -5.02 3.66 -4 4 C-4 6.97 -4 9.94 -4 13 C-3.34 13 -2.68 13 -2 13 C-2.02320313 12.31292969 -2.04640625 11.62585938 -2.0703125 10.91796875 C-2.08835938 10.01691406 -2.10640625 9.11585938 -2.125 8.1875 C-2.14820313 7.29417969 -2.17140625 6.40085937 -2.1953125 5.48046875 C-2 3 -2 3 0 0 Z " fill="#DADADA" transform="translate(148,296)"/>
<path d="M0 0 C0.99 0 1.98 0 3 0 C3 1.65 3 3.3 3 5 C5.31 5.66 7.62 6.32 10 7 C10 7.33 10 7.66 10 8 C7.03 8 4.06 8 1 8 C1 8.99 1 9.98 1 11 C0.34 11 -0.32 11 -1 11 C-1.33 11.66 -1.66 12.32 -2 13 C-3.18414294 9.44757118 -2.69535532 8.30169438 -1.5625 4.8125 C-1.27503906 3.91144531 -0.98757812 3.01039063 -0.69140625 2.08203125 C-0.46324219 1.39496094 -0.23507813 0.70789063 0 0 Z " fill="#1F1F1F" transform="translate(174,300)"/>
<path d="M0 0 C-0.75 5.75 -0.75 5.75 -3 8 C-5.625 7.625 -5.625 7.625 -8 7 C-8 5.02 -8 3.04 -8 1 C-5.23735711 0.40267181 -2.83967231 0 0 0 Z " fill="#D2B425" transform="translate(215,252)"/>
<path d="M0 0 C0.33 0.66 0.66 1.32 1 2 C-3.03523352 6.81123996 -7.04467233 11.13242719 -12 15 C-12.66 14.67 -13.32 14.34 -14 14 C-12.23304141 12.03804598 -10.46168211 10.08040373 -8.6875 8.125 C-8.18798828 7.56941406 -7.68847656 7.01382812 -7.17382812 6.44140625 C-4.8912844 3.93211977 -2.83639832 1.89093222 0 0 Z " fill="#C7C7C7" transform="translate(277,18)"/>
<path d="M0 0 C0.33 0.99 0.66 1.98 1 3 C0.32453125 3.73605469 -0.3509375 4.47210938 -1.046875 5.23046875 C-1.94799772 6.21607173 -2.84903483 7.20175299 -3.75 8.1875 C-4.63171875 9.15042969 -5.5134375 10.11335938 -6.421875 11.10546875 C-8.70979363 13.67417739 -10.88081607 16.29160372 -13 19 C-13.26414968 16.02184184 -13.29168974 14.45140458 -11.64453125 11.90234375 C-11.03996094 11.25394531 -10.43539062 10.60554688 -9.8125 9.9375 C-9.17699219 9.25300781 -8.54148438 8.56851562 -7.88671875 7.86328125 C-5.72130904 5.72477104 -3.41619933 3.84768184 -1 2 C-0.67 1.34 -0.34 0.68 0 0 Z " fill="#212121" transform="translate(237,364)"/>
<path d="M0 0 C-0.969375 0.28875 -1.93875 0.5775 -2.9375 0.875 C-6.10664203 1.64214682 -6.10664203 1.64214682 -7 4 C-12.30788029 5.19156496 -16.70936543 4.83536335 -22 4 C-18.47921315 1.98434953 -14.94911236 1.17009326 -11 0.3125 C-9.783125 0.04050781 -8.56625 -0.23148438 -7.3125 -0.51171875 C-4.35566123 -0.94757352 -2.74913631 -1.02405328 0 0 Z " fill="#1E1B1B" transform="translate(237,225)"/>
<path d="M0 0 C1.52519276 0.08937803 3.04681929 0.24537146 4.5625 0.4375 C5.80193359 0.59025391 5.80193359 0.59025391 7.06640625 0.74609375 C7.70449219 0.82988281 8.34257812 0.91367187 9 1 C9 1.33 9 1.66 9 2 C6.36 2.33 3.72 2.66 1 3 C0.67 7.95 0.34 12.9 0 18 C0.66 18 1.32 18 2 18 C2.33 18.99 2.66 19.98 3 21 C3.99 21.66 4.98 22.32 6 23 C3.625 22.6875 3.625 22.6875 1 22 C-1.05312708 18.92030937 -1.24997754 18.28031295 -1.23046875 14.8046875 C-1.22853516 14.00675781 -1.22660156 13.20882812 -1.22460938 12.38671875 C-1.20624023 11.14341797 -1.20624023 11.14341797 -1.1875 9.875 C-1.18685547 9.03839844 -1.18621094 8.20179687 -1.18554688 7.33984375 C-1.14033163 1.14033163 -1.14033163 1.14033163 0 0 Z " fill="#A3621C" transform="translate(224,45)"/>
<path d="M0 0 C0.99 0 1.98 0 3 0 C5.60018816 3.90028225 5.15085514 7.47434569 5 12 C4.01 12.495 4.01 12.495 3 13 C2.34 9.7 1.68 6.4 1 3 C0.34 5.64 -0.32 8.28 -1 11 C-1.33 11 -1.66 11 -2 11 C-2.22786458 8.98177083 -2.45572917 6.96354167 -2.68359375 4.9453125 C-2.91292961 2.92595684 -2.91292961 2.92595684 -4 1 C-2.68 1.33 -1.36 1.66 0 2 C0 1.34 0 0.68 0 0 Z " fill="#D6D6D6" transform="translate(161,299)"/>
<path d="M0 0 C0.33 0 0.66 0 1 0 C1.02187378 1.43049683 1.02187378 1.43049683 1.04418945 2.88989258 C1.10217792 6.42933585 1.17940958 9.96814324 1.26245117 13.50708008 C1.29569818 15.03855059 1.32373093 16.57014356 1.34643555 18.10180664 C1.37998718 20.30407887 1.4322991 22.50522912 1.48828125 24.70703125 C1.49467117 25.39150833 1.5010611 26.07598541 1.50764465 26.78120422 C1.5994084 29.75020838 1.66735787 31.5753313 3.53198242 33.95581055 C4.25865112 34.47268433 4.25865112 34.47268433 5 35 C3.35 35 1.7 35 0 35 C0 23.45 0 11.9 0 0 Z " fill="#0A0A0A" transform="translate(164,329)"/>
<path d="M0 0 C-0.33 6.6 -0.66 13.2 -1 20 C-1.33 20 -1.66 20 -2 20 C-2 14.06 -2 8.12 -2 2 C-6.455 2.495 -6.455 2.495 -11 3 C-6.82757192 0.21838128 -5.14871119 0 0 0 Z " fill="#C9C9C9" transform="translate(166,51)"/>
<path d="M0 0 C0.66 0.33 1.32 0.66 2 1 C0.515 3.475 0.515 3.475 -1 6 C2.63 6.66 6.26 7.32 10 8 C10 8.33 10 8.66 10 9 C8.27119018 9.05449838 6.54187288 9.09301688 4.8125 9.125 C3.84957031 9.14820313 2.88664063 9.17140625 1.89453125 9.1953125 C-1.12812778 8.9913544 -3.26769985 8.26874632 -6 7 C-4.02 4.69 -2.04 2.38 0 0 Z " fill="#B8B8B8" transform="translate(145,375)"/>
<path d="M0 0 C1.32 0.33 2.64 0.66 4 1 C4 1.99 4 2.98 4 4 C9.61 4 15.22 4 21 4 C21 4.33 21 4.66 21 5 C14.62694402 5.74507544 8.41688675 6.10349817 2 6 C1.34 4.02 0.68 2.04 0 0 Z " fill="#949494" transform="translate(195,380)"/>
<path d="M0 0 C1.32 0 2.64 0 4 0 C6.32590854 3.63423209 6.16265833 6.77088331 6 11 C5.67 11 5.34 11 5 11 C4.87882813 10.43410156 4.75765625 9.86820313 4.6328125 9.28515625 C4.46523437 8.55167969 4.29765625 7.81820312 4.125 7.0625 C3.88136719 5.96615234 3.88136719 5.96615234 3.6328125 4.84765625 C3.17038477 2.79299706 3.17038477 2.79299706 1 2 C1.33 5.63 1.66 9.26 2 13 C0 12 0 12 -1.1875 9.75 C-2.2979828 5.99144283 -1.73027849 3.46055698 0 0 Z " fill="#C3C3C3" transform="translate(218,97)"/>
<path d="M0 0 C0 0.66 0 1.32 0 2 C-6.04829486 2.89604368 -11.8894576 3.11269443 -18 3 C-18 2.34 -18 1.68 -18 1 C-11.93303301 0.22959149 -6.11485027 -0.09706112 0 0 Z " fill="#181818" transform="translate(192,337)"/>
<path d="M0 0 C0.99 0.33 1.98 0.66 3 1 C3 4.63 3 8.26 3 12 C2.01 12 1.02 12 0 12 C0 8.04 0 4.08 0 0 Z " fill="#111111" transform="translate(247,293)"/>
<path d="M0 0 C1.98 0 3.96 0 6 0 C6 1.98 6 3.96 6 6 C4.02 6 2.04 6 0 6 C0 4.02 0 2.04 0 0 Z " fill="#7E7E7E" transform="translate(182,196)"/>
<path d="M0 0 C1.98 0 3.96 0 6 0 C6 1.98 6 3.96 6 6 C5.34 6 4.68 6 4 6 C4 4.68 4 3.36 4 2 C3.34 2 2.68 2 2 2 C2 3.32 2 4.64 2 6 C0.35 6 -1.3 6 -3 6 C-2.67 4.68 -2.34 3.36 -2 2 C-1.67 2.66 -1.34 3.32 -1 4 C-0.67 2.68 -0.34 1.36 0 0 Z " fill="#A3A3A3" transform="translate(160,369)"/>
<path d="M0 0 C0.66 0 1.32 0 2 0 C1.93993922 1.45947705 1.8511311 2.91779272 1.75 4.375 C1.70359375 5.18710937 1.6571875 5.99921875 1.609375 6.8359375 C1 9 1 9 -1.046875 10.2890625 C-2.01367188 10.64097656 -2.01367188 10.64097656 -3 11 C-2.25 3.375 -2.25 3.375 0 0 Z " fill="#1F1F1F" transform="translate(263,292)"/>
<path d="M0 0 C2.64 0 5.28 0 8 0 C8 1.65 8 3.3 8 5 C5.69 4.67 3.38 4.34 1 4 C0.67 2.68 0.34 1.36 0 0 Z " fill="#DCBD27" transform="translate(194,255)"/>
<path d="M0 0 C0.99 0 1.98 0 3 0 C6 6.5 6 6.5 6 11 C3 10 3 10 1.3125 7.1875 C0 4 0 4 0 0 Z " fill="#1E1A1A" transform="translate(118,45)"/>
<path d="M0 0 C6.625 0.75 6.625 0.75 10 3 C8.02 3 6.04 3 4 3 C4 4.65 4 6.3 4 8 C3.01 8 2.02 8 1 8 C0.67 5.36 0.34 2.72 0 0 Z " fill="#232323" transform="translate(260,360)"/>
<path d="M0 0 C0.99 0.33 1.98 0.66 3 1 C1.42210402 2.15330947 -0.1625482 3.29737927 -1.75 4.4375 C-2.63171875 5.07558594 -3.5134375 5.71367187 -4.421875 6.37109375 C-6.72699125 7.8275081 -8.34349572 8.55931821 -11 9 C-11 8.34 -11 7.68 -11 7 C-8.69921875 5.23828125 -8.69921875 5.23828125 -5.6875 3.3125 C-4.70136719 2.66925781 -3.71523437 2.02601563 -2.69921875 1.36328125 C-1.80847656 0.91339844 -0.91773438 0.46351563 0 0 Z " fill="#212121" transform="translate(206,336)"/>
<path d="M0 0 C0.33 1.32 0.66 2.64 1 4 C-0.65 4.33 -2.3 4.66 -4 5 C-3.01 3.68 -2.02 2.36 -1 1 C-5.62 1.33 -10.24 1.66 -15 2 C-10.22972849 -1.18018101 -5.48771498 -1.49664954 0 0 Z " fill="#B6B6B6" transform="translate(111,134)"/>
<path d="M0 0 C1.65 0.33 3.3 0.66 5 1 C4.67 2.65 4.34 4.3 4 6 C2.35 5.67 0.7 5.34 -1 5 C-0.67 3.35 -0.34 1.7 0 0 Z " fill="#CDCDCD" transform="translate(214,128)"/>
<path d="M0 0 C0.66 0.33 1.32 0.66 2 1 C2 1.99 2 2.98 2 4 C-2.95 6.475 -2.95 6.475 -8 9 C-6.94250081 4.77000325 -6.79967512 4.45069644 -3.4375 2.25 C-2.79683594 1.82203125 -2.15617187 1.3940625 -1.49609375 0.953125 C-1.00238281 0.63859375 -0.50867188 0.3240625 0 0 Z " fill="#212121" transform="translate(295,93)"/>
<path d="M0 0 C-0.99 0.33 -1.98 0.66 -3 1 C-4.12516085 2.83284443 -4.12516085 2.83284443 -5 5 C-5.9375 7.1875 -5.9375 7.1875 -7 9 C-7.99 9.33 -8.98 9.66 -10 10 C-7.86029412 1.54555237 -7.86029412 1.54555237 -4.4375 -0.625 C-2 -1 -2 -1 0 0 Z " fill="#C7C7C7" transform="translate(228,249)"/>
<path d="M0 0 C2.79872437 2.52788007 4.45773019 4.20411134 5 8 C4.01 8.33 3.02 8.66 2 9 C2 8.01 2 7.02 2 6 C0.68 6 -0.64 6 -2 6 C-1.125 1.125 -1.125 1.125 0 0 Z " fill="#110F10" transform="translate(115,37)"/>
<path d="M0 0 C3.63 0 7.26 0 11 0 C11 0.66 11 1.32 11 2 C10.01 2.33 9.02 2.66 8 3 C6.78130071 5.50447516 6.78130071 5.50447516 6 8 C5.67 8 5.34 8 5 8 C4.9175 7.05125 4.835 6.1025 4.75 5.125 C4.5025 4.09375 4.255 3.0625 4 2 C2.68 1.34 1.36 0.68 0 0 Z " fill="#080808" transform="translate(161,367)"/>
<path d="M0 0 C0.66 0 1.32 0 2 0 C2 0.66 2 1.32 2 2 C3.98 2 5.96 2 8 2 C8 2.66 8 3.32 8 4 C5.37684968 5.31157516 3.76966564 4.89649988 0.875 4.5625 C-0.03507813 4.46066406 -0.94515625 4.35882813 -1.8828125 4.25390625 C-2.58148438 4.17011719 -3.28015625 4.08632813 -4 4 C-2.68 3.67 -1.36 3.34 0 3 C0 2.01 0 1.02 0 0 Z " fill="#272727" transform="translate(225,324)"/>
<path d="M0 0 C5.63281599 -0.2396943 10.54538831 0.61470179 16 2 C12.1836061 4.12931849 10.2888531 4.02932474 6 3 C3.98910922 2.36694179 1.98536627 1.70905938 0 1 C0 0.67 0 0.34 0 0 Z " fill="#4C4C4C" transform="translate(282,163)"/>
<path d="M0 0 C1.8871875 0.061875 1.8871875 0.061875 3.8125 0.125 C3.8125 0.785 3.8125 1.445 3.8125 2.125 C6.2875 3.115 6.2875 3.115 8.8125 4.125 C7.8225 4.62 7.8225 4.62 6.8125 5.125 C6.131875 4.83625 5.45125 4.5475 4.75 4.25 C0.82658188 2.74741434 -3.02339751 2.46974051 -7.1875 2.125 C-4.09861478 0.06574319 -3.47814073 -0.1140374 0 0 Z " fill="#B7B7B7" transform="translate(173.1875,364.875)"/>
<path d="M0 0 C-0.3125 1.875 -0.3125 1.875 -1 4 C-4.96038759 6.64025839 -8.39869972 6 -13 6 C-10.65890118 4.43926745 -8.43666597 3.13626133 -5.9375 1.875 C-5.24527344 1.52179688 -4.55304688 1.16859375 -3.83984375 0.8046875 C-2 0 -2 0 0 0 Z " fill="#2E2E2E" transform="translate(170,314)"/>
<path d="M0 0 C2.96175123 0.61277612 4.38058783 1.25372522 7 3 C6.67 4.65 6.34 6.3 6 8 C5.67 8 5.34 8 5 8 C4.67 9.98 4.34 11.96 4 14 C3.67 14 3.34 14 3 14 C2.92652344 12.82630859 2.92652344 12.82630859 2.8515625 11.62890625 C2.77679688 10.61699219 2.70203125 9.60507812 2.625 8.5625 C2.55539063 7.55316406 2.48578125 6.54382813 2.4140625 5.50390625 C2.27742187 4.67761719 2.14078125 3.85132813 2 3 C1.34 2.67 0.68 2.34 0 2 C0 1.34 0 0.68 0 0 Z " fill="#CECECE" transform="translate(247,291)"/>
<path d="M0 0 C1.65 0 3.3 0 5 0 C5.1953125 6.0546875 5.1953125 6.0546875 5 8 C4.34 8.66 3.68 9.32 3 10 C3 7.36 3 4.72 3 2 C2.34 2 1.68 2 1 2 C0.67 2.99 0.34 3.98 0 5 C-0.33 4.34 -0.66 3.68 -1 3 C-0.67 2.01 -0.34 1.02 0 0 Z " fill="#DDDDDD" transform="translate(262,290)"/>
<path d="M0 0 C2.0625 0.4375 2.0625 0.4375 4 1 C3.67 2.65 3.34 4.3 3 6 C2.01 6.33 1.02 6.66 0 7 C-1 6 -1 6 -1.125 3.5 C-1 1 -1 1 0 0 Z " fill="#AFAFAF" transform="translate(203,195)"/>
<path d="M0 0 C1.32 0.33 2.64 0.66 4 1 C4 1.99 4 2.98 4 4 C0.69005287 5.65497356 -2.99123 5.10084335 -6.625 5.0625 C-7.42679687 5.05798828 -8.22859375 5.05347656 -9.0546875 5.04882812 C-11.03649006 5.03703168 -13.01825433 5.01909605 -15 5 C-15 4.67 -15 4.34 -15 4 C-7.08 3.505 -7.08 3.505 1 3 C0.67 2.01 0.34 1.02 0 0 Z " fill="#D0D0D0" transform="translate(101,108)"/>
<path d="M0 0 C2.0343459 1.41519715 2.90410393 2.54982123 3.421875 4.98046875 C3.66273952 6.98176954 3.83532741 8.9909944 4 11 C5.65 11 7.3 11 9 11 C8.34 11.66 7.68 12.32 7 13 C5.68 13 4.36 13 3 13 C2.49242138 11.58603098 1.99425075 10.16868271 1.5 8.75 C1.08234375 7.56664062 1.08234375 7.56664062 0.65625 6.359375 C0 4 0 4 0 0 Z " fill="#C0C0C0" transform="translate(77,168)"/>
<path d="M0 0 C-0.99 0.33 -1.98 0.66 -3 1 C-1.68 1.66 -0.36 2.32 1 3 C-3.455 3.495 -3.455 3.495 -8 4 C-8 3.34 -8 2.68 -8 2 C-9.32 1.67 -10.64 1.34 -12 1 C-3.96428571 -1.27678571 -3.96428571 -1.27678571 0 0 Z " fill="#292929" transform="translate(87,140)"/>
<path d="M0 0 C1.32 0.33 2.64 0.66 4 1 C2.02 3.31 0.04 5.62 -2 8 C-2.66 7.34 -3.32 6.68 -4 6 C-2.68 4.02 -1.36 2.04 0 0 Z " fill="#151515" transform="translate(142,373)"/>
<path d="M0 0 C0.66 0 1.32 0 2 0 C2 0.99 2 1.98 2 3 C2.99 3.33 3.98 3.66 5 4 C4.34 6.97 3.68 9.94 3 13 C0.89172945 9.83759418 0.66182535 8.49342531 0.375 4.8125 C0.30023438 3.91144531 0.22546875 3.01039063 0.1484375 2.08203125 C0.09945312 1.39496094 0.05046875 0.70789063 0 0 Z " fill="#E8E8E8" transform="translate(152,298)"/>
<path d="M0 0 C2.29013653 3.4352048 2.17842973 4.985331 2 9 C1.01 9.33 0.02 9.66 -1 10 C-1.02689216 8.52093108 -1.04634621 7.04172517 -1.0625 5.5625 C-1.07410156 4.73878906 -1.08570313 3.91507812 -1.09765625 3.06640625 C-1 1 -1 1 0 0 Z " fill="#191919" transform="translate(162,301)"/>
<path d="M0 0 C0.66 0.33 1.32 0.66 2 1 C2 3.64 2 6.28 2 9 C1.01 9 0.02 9 -1 9 C-1.09765625 2.84765625 -1.09765625 2.84765625 -1 1 C-0.67 0.67 -0.34 0.34 0 0 Z " fill="#0E0E0E" transform="translate(157,301)"/>
<path d="M0 0 C2 4 2 4 2 7 C2.99 7.33 3.98 7.66 5 8 C3.35 8.66 1.7 9.32 0 10 C0 6.7 0 3.4 0 0 Z M-2 10 C-1.01 10.495 -1.01 10.495 0 11 C-0.99 11.495 -0.99 11.495 -2 12 C-2 11.34 -2 10.68 -2 10 Z " fill="#F4F4F4" transform="translate(251,295)"/>
<path d="M0 0 C0 0.33 0 0.66 0 1 C-2.10170656 1.53067341 -4.20647598 2.04922857 -6.3125 2.5625 C-7.48425781 2.85253906 -8.65601562 3.14257812 -9.86328125 3.44140625 C-13 4 -13 4 -16 3 C-10.4477112 0.1647887 -6.19887485 -0.37952295 0 0 Z " fill="#CACACA" transform="translate(96,136)"/>
<path d="M0 0 C3 1 3 1 4.75 3.9375 C5.1625 4.948125 5.575 5.95875 6 7 C5.67 7.66 5.34 8.32 5 9 C4.67 7.68 4.34 6.36 4 5 C1.03 4.505 1.03 4.505 -2 4 C-1.34 2.68 -0.68 1.36 0 0 Z " fill="#B6B6B6" transform="translate(119,13)"/>
<path d="M0 0 C3.77545388 1.09068668 6.47043472 1.9083091 9 5 C8.67 5.99 8.34 6.98 8 8 C6.66372225 6.85760183 5.33104612 5.71098945 4 4.5625 C3.2575 3.92441406 2.515 3.28632813 1.75 2.62890625 C1.1725 2.09136719 0.595 1.55382812 0 1 C0 0.67 0 0.34 0 0 Z " fill="#969696" transform="translate(186,372)"/>
<path d="M0 0 C0.99 0.33 1.98 0.66 3 1 C1.35 2.65 -0.3 4.3 -2 6 C-2.99 5.01 -3.98 4.02 -5 3 C-2.6875 1.4375 -2.6875 1.4375 0 0 Z " fill="#1B1B1B" transform="translate(149,369)"/>
<path d="M0 0 C2.19219402 2.36689329 2.9871902 3.51727269 3.07421875 6.796875 C2.94660156 7.77140625 2.81898438 8.7459375 2.6875 9.75 C2.56761719 10.73484375 2.44773438 11.7196875 2.32421875 12.734375 C2.21722656 13.48203125 2.11023438 14.2296875 2 15 C1.67 15 1.34 15 1 15 C0.93941406 14.38511719 0.87882813 13.77023438 0.81640625 13.13671875 C0.73261719 12.32847656 0.64882812 11.52023438 0.5625 10.6875 C0.48128906 9.88699219 0.40007812 9.08648437 0.31640625 8.26171875 C0.04734307 5.83912821 0.04734307 5.83912821 -1 3 C-0.67 2.01 -0.34 1.02 0 0 Z " fill="#291704" transform="translate(216,232)"/>
<path d="M0 0 C-0.1875 1.875 -0.1875 1.875 -1 4 C-3.5625 5.25 -3.5625 5.25 -6 6 C-6 4.68 -6 3.36 -6 2 C-3 0 -3 0 0 0 Z " fill="#252525" transform="translate(100,171)"/>
<path d="M0 0 C0.99 0.33 1.98 0.66 3 1 C3 1.33 3 1.66 3 2 C6.63 2.33 10.26 2.66 14 3 C14 3.33 14 3.66 14 4 C9.38 4 4.76 4 0 4 C0 2.68 0 1.36 0 0 Z " fill="#C5C5C5" transform="translate(281,118)"/>
<path d="M0 0 C1.32 0.33 2.64 0.66 4 1 C4 1.66 4 2.32 4 3 C2.03533587 4.06775224 0.03144641 5.06553465 -2 6 C-2.66 5.67 -3.32 5.34 -4 5 C-2.68 3.35 -1.36 1.7 0 0 Z " fill="#C5C5C5" transform="translate(284,10)"/>
<path d="M0 0 C0.66 0.99 1.32 1.98 2 3 C0.7260411 5.03833424 -0.61061923 7.03852126 -2 9 C-2.66 9 -3.32 9 -4 9 C-3.35455571 5.51460083 -1.89865603 2.97180943 0 0 Z " fill="#272727" transform="translate(220,333)"/>
<path d="M0 0 C0.99 0 1.98 0 3 0 C3 1.98 3 3.96 3 6 C2.01 6.33 1.02 6.66 0 7 C0 4.69 0 2.38 0 0 Z " fill="#0C0C0C" transform="translate(253,294)"/>
<path d="M0 0 C0.93423645 3.01031744 1.04449911 3.86650268 0 7 C-0.99 7 -1.98 7 -3 7 C-2.625 4.0625 -2.625 4.0625 -2 1 C-1.34 0.67 -0.68 0.34 0 0 Z " fill="#201B1C" transform="translate(108,53)"/>
<path d="M0 0 C0.33 0 0.66 0 1 0 C1.99 4.62 2.98 9.24 4 14 C2 13 2 13 0.875 10.9375 C-0.2583306 7.13274727 -0.13434296 3.9631172 0 0 Z " fill="#C1C1C1" transform="translate(131,41)"/>
<path d="M0 0 C3.67420866 0.30618405 4.78135513 0.75771784 7.3125 3.5625 C8.1478125 4.7690625 8.1478125 4.7690625 9 6 C8.34 6 7.68 6 7 6 C6.67 6.66 6.34 7.32 6 8 C5.566875 7.236875 5.13375 6.47375 4.6875 5.6875 C3.26313215 3.41906232 1.96739903 1.7800277 0 0 Z " fill="#141414" transform="translate(267,363)"/>
<path d="M0 0 C0.66 0.33 1.32 0.66 2 1 C2 2.98 2 4.96 2 7 C1.01 7 0.02 7 -1 7 C-1.04254356 5.00045254 -1.04080783 2.99958364 -1 1 C-0.67 0.67 -0.34 0.34 0 0 Z " fill="#3E3E3E" transform="translate(193,196)"/>
<path d="M0 0 C4.8 3.44615385 4.8 3.44615385 5.8125 6.25 C5.874375 6.8275 5.93625 7.405 6 8 C4.68 7.67 3.36 7.34 2 7 C1.34 4.69 0.68 2.38 0 0 Z " fill="#9A9A9A" transform="translate(187,377)"/>
<path d="M0 0 C1.32 0.33 2.64 0.66 4 1 C2.68 2.32 1.36 3.64 0 5 C-0.99 4.67 -1.98 4.34 -3 4 C-2.01 2.68 -1.02 1.36 0 0 Z " fill="#BCA121" transform="translate(198,236)"/>
<path d="M0 0 C0 0.33 0 0.66 0 1 C-5.94 1.495 -5.94 1.495 -12 2 C-8.02483446 -1.97516554 -5.26910241 -0.7648697 0 0 Z " fill="#140000" transform="translate(242,226)"/>
<path d="M0 0 C2.12046792 3.53411321 2.53199289 6.94393835 3 11 C1 10 1 10 -0.1875 7.75 C-1.08937081 4.69751418 -0.86361585 3.02265546 0 0 Z " fill="#CECECE" transform="translate(217,99)"/>
<path d="M0 0 C0 1.65 0 3.3 0 5 C-0.99 5.33 -1.98 5.66 -3 6 C-3.33 4.35 -3.66 2.7 -4 1 C-1 0 -1 0 0 0 Z " fill="#332C08" transform="translate(207,254)"/>
<path d="M0 0 C2.64 0 5.28 0 8 0 C8.66 1.65 9.32 3.3 10 5 C9.01 4.67 8.02 4.34 7 4 C7 3.01 7 2.02 7 1 C4.69 1 2.38 1 0 1 C0 0.67 0 0.34 0 0 Z " fill="#CDCDCD" transform="translate(180,255)"/>
<path d="M0 0 C-0.33 1.98 -0.66 3.96 -1 6 C-1.33 4.68 -1.66 3.36 -2 2 C-3.98 2 -5.96 2 -8 2 C-8 1.67 -8 1.34 -8 1 C-5.23735711 0.40267181 -2.83967231 0 0 0 Z " fill="#A38C1D" transform="translate(215,252)"/>
</svg>
